<svg width="114" height="31" viewBox="0 0 114 31" fill="none" xmlns="http://www.w3.org/2000/svg">
<path d="M0.35 30L11.01 1.4H17.31L27.83 30H23.37L20.76 22.83H7.36L4.71 30H0.35ZM19.37 19.03L14.11 4.57L8.76 19.03H19.37ZM38.3334 7.35C39.8334 7.35 41.1668 7.52 42.3334 7.86C43.5068 8.2 44.4934 8.68667 45.2934 9.32C46.1001 9.94667 46.7134 10.71 47.1334 11.61C47.5534 12.5033 47.7634 13.5067 47.7634 14.62H43.8034C43.8034 14.0533 43.6834 13.54 43.4434 13.08C43.2101 12.6133 42.8601 12.2167 42.3934 11.89C41.9334 11.5567 41.3634 11.3 40.6834 11.12C40.0034 10.94 39.2201 10.85 38.3334 10.85C37.5334 10.85 36.8034 10.9233 36.1434 11.07C35.4901 11.2167 34.9268 11.4267 34.4534 11.7C33.9801 11.9667 33.6134 12.29 33.3534 12.67C33.0934 13.0433 32.9634 13.46 32.9634 13.92C32.9634 14.2667 33.0368 14.5733 33.1834 14.84C33.3301 15.1 33.5301 15.3267 33.7834 15.52C34.0368 15.7133 34.3334 15.88 34.6734 16.02C35.0134 16.1533 35.3768 16.27 35.7634 16.37C36.1568 16.47 36.5634 16.5567 36.9834 16.63C37.4034 16.6967 37.8168 16.7633 38.2234 16.83L39.7034 17.06C40.3168 17.1533 40.9601 17.2633 41.6334 17.39C42.3134 17.51 42.9801 17.6733 43.6334 17.88C44.2934 18.08 44.9201 18.3367 45.5134 18.65C46.1134 18.9567 46.6401 19.3433 47.0934 19.81C47.5468 20.2767 47.9068 20.8367 48.1734 21.49C48.4401 22.1367 48.5734 22.9067 48.5734 23.8C48.5734 24.8867 48.3601 25.8533 47.9334 26.7C47.5068 27.54 46.8768 28.25 46.0434 28.83C45.2101 29.41 44.1801 29.85 42.9534 30.15C41.7268 30.45 40.3101 30.6 38.7034 30.6C37.0301 30.6 35.5634 30.4367 34.3034 30.11C33.0434 29.7833 31.9934 29.3033 31.1534 28.67C30.3134 28.0367 29.6801 27.26 29.2534 26.34C28.8334 25.4133 28.6234 24.35 28.6234 23.15H32.5734C32.5734 24.4167 33.0734 25.3933 34.0734 26.08C35.0734 26.76 36.6134 27.1 38.6934 27.1C39.6334 27.1 40.4701 27.03 41.2034 26.89C41.9368 26.75 42.5568 26.5433 43.0634 26.27C43.5701 25.9967 43.9568 25.66 44.2234 25.26C44.4901 24.86 44.6234 24.4033 44.6234 23.89C44.6234 23.49 44.5468 23.14 44.3934 22.84C44.2401 22.5333 44.0268 22.27 43.7534 22.05C43.4801 21.8233 43.1568 21.63 42.7834 21.47C42.4168 21.3033 42.0168 21.16 41.5834 21.04C41.1501 20.92 40.6968 20.8167 40.2234 20.73C39.7568 20.6367 39.2834 20.55 38.8034 20.47L37.3334 20.22C36.7734 20.1267 36.1801 20.02 35.5534 19.9C34.9268 19.7733 34.3034 19.6167 33.6834 19.43C33.0701 19.2367 32.4801 18.9967 31.9134 18.71C31.3534 18.4167 30.8568 18.0567 30.4234 17.63C29.9968 17.2033 29.6534 16.6933 29.3934 16.1C29.1401 15.5067 29.0134 14.81 29.0134 14.01C29.0134 12.9967 29.2268 12.08 29.6534 11.26C30.0868 10.44 30.7034 9.74 31.5034 9.16C32.3101 8.58 33.2868 8.13333 34.4334 7.82C35.5868 7.50667 36.8868 7.35 38.3334 7.35ZM64.6422 29.83C62.9555 30.3367 61.4355 30.59 60.0822 30.59C58.9822 30.59 58.0089 30.42 57.1622 30.08C56.3222 29.7467 55.6155 29.25 55.0422 28.59C54.4689 27.9233 54.0322 27.1 53.7322 26.12C53.4389 25.1333 53.2922 23.9933 53.2922 22.7V11.35H50.2922V7.95H53.2922V2.87H57.3422V7.95H64.6422V11.35H57.3422V22.71C57.3422 24.17 57.6155 25.25 58.1622 25.95C58.7155 26.6433 59.5822 26.99 60.7622 26.99C61.2222 26.99 61.7689 26.9367 62.4022 26.83C63.0422 26.7233 63.7889 26.5567 64.6422 26.33V29.83ZM71.5484 30H67.4984V7.95H71.5484V14.99C71.8084 13.89 72.1784 12.9067 72.6584 12.04C73.1451 11.1667 73.7451 10.4267 74.4584 9.82C75.1718 9.21333 75.9951 8.75 76.9284 8.43C77.8684 8.11 78.9218 7.95 80.0884 7.95H81.0984V11.81H80.0984C78.4851 11.81 77.1318 11.96 76.0384 12.26C74.9451 12.5533 74.0651 13 73.3984 13.6C72.7384 14.2 72.2651 14.9567 71.9784 15.87C71.6918 16.7767 71.5484 17.8433 71.5484 19.07V30ZM87.8984 5.4H83.6484V0.4H87.8984V5.4ZM87.7984 30H83.7484V7.95H87.7984V30ZM104.634 18.8L113.414 30H108.614L101.514 20.98L94.6141 30H90.0641L98.7041 18.85L90.5041 7.95H95.3041L101.814 16.64L108.164 7.95H112.714L104.634 18.8Z" fill="white"/>
</svg>
