<svg width="36" height="36" viewBox="0 0 36 36" fill="none" xmlns="http://www.w3.org/2000/svg">
<path fill-rule="evenodd" clip-rule="evenodd" d="M12.8182 17.6428V4.93151C12.8182 2.20791 15.0261 0 17.7497 0V12.8219C17.7497 15.5455 15.5418 17.7534 12.8182 17.7534V17.747C12.6047 17.747 12.3859 17.7486 12.1635 17.7501C11.2775 17.7564 10.3324 17.763 9.42656 17.6754C8.29189 17.5657 7.21102 17.3075 6.37755 16.7097C5.54164 16.1102 4.95999 15.1731 4.81751 13.7183C4.67526 12.2658 4.97055 10.2968 5.8853 7.62784C5.89246 7.60693 5.91266 7.59335 5.93472 7.59459C5.95679 7.59584 5.97533 7.61161 5.9801 7.63318C7.48589 14.4452 11.8414 17.2308 12.8182 17.6428ZM5.93421 7.87653C7.32954 13.8642 10.9211 16.698 12.3687 17.5248C10.4287 16.9392 8.65938 15.5982 7.4498 13.8983C6.18898 12.1265 5.53939 9.96912 5.93421 7.87653ZM4.91567 13.7087C4.80801 12.6094 4.95411 11.2031 5.44043 9.40476C4.95557 12.1492 5.6183 14.1238 6.862 15.4617C8.04221 16.7314 9.73956 17.4209 11.4562 17.6548C10.7864 17.6548 10.1008 17.6416 9.43606 17.5773C8.30777 17.4681 7.24755 17.2123 6.43503 16.6296C5.62495 16.0486 5.05573 15.1387 4.91567 13.7087ZM6.93424 15.3946C5.57314 13.9304 4.90993 11.6779 5.75452 8.43281C5.56018 10.3727 6.21131 12.328 7.36944 13.9555C8.60462 15.6914 10.4193 17.0587 12.4099 17.6399C10.4053 17.558 8.30936 16.8739 6.93424 15.3946Z" fill="white"/>
<path d="M17.7534 23.1781H4.93151C2.20791 23.1781 0 20.9702 0 18.2466H12.8219C15.5455 18.2466 17.7534 20.4545 17.7534 23.1781Z" fill="white"/>
<path fill-rule="evenodd" clip-rule="evenodd" d="M23.1818 18.3557V31.0685C23.1818 33.7921 20.9739 36 18.2503 36V23.1781C18.2503 20.4545 20.4582 18.2466 23.1818 18.2466V18.253C23.3965 18.253 23.6165 18.2515 23.8403 18.2499C24.7262 18.2436 25.6713 18.2369 26.5771 18.3246C27.7118 18.4343 28.7927 18.6925 29.6262 19.2903C30.4621 19.8898 31.0437 20.8269 31.1862 22.2817C31.3285 23.7342 31.0332 25.7032 30.1184 28.3722C30.1113 28.3931 30.0911 28.4067 30.069 28.4054C30.0469 28.4042 30.0284 28.3884 30.0236 28.3668C28.5159 21.5461 24.1511 18.762 23.1818 18.3557ZM30.0695 28.1235C28.6742 22.1358 25.0826 19.302 23.635 18.4752C25.575 19.0608 27.3443 20.4018 28.5539 22.1016C29.8147 23.8735 30.4643 26.0309 30.0695 28.1235ZM31.088 22.2913C31.1957 23.3906 31.0496 24.7969 30.5633 26.5952C31.0481 23.8508 30.3854 21.8762 29.1417 20.5383C27.9615 19.2686 26.2641 18.5791 24.5475 18.3452C25.2173 18.3452 25.9029 18.3584 26.5677 18.4227C27.6959 18.5319 28.7562 18.7877 29.5687 19.3704C30.3788 19.9514 30.948 20.8613 31.088 22.2913ZM29.0695 20.6054C30.4306 22.0696 31.0938 24.3221 30.2492 27.5672C30.4435 25.6273 29.7924 23.672 28.6343 22.0445C27.3991 20.3086 25.5844 18.9413 23.5938 18.3601C25.5984 18.442 27.6944 19.1261 29.0695 20.6054Z" fill="white"/>
<path d="M18.2466 12.8219H31.0685C33.7921 12.8219 36 15.0298 36 17.7534H23.1781C20.4545 17.7534 18.2466 15.5455 18.2466 12.8219Z" fill="white"/>
</svg>
