<svg width="50" height="50" viewBox="0 0 50 50" fill="none" xmlns="http://www.w3.org/2000/svg">
<path d="M31.3462 13.75C31.3462 10.2884 28.4616 7.40381 25 7.40381C21.5385 7.40381 18.6539 10.2884 18.6539 13.75C18.6539 17.2115 21.5385 20.0961 25 20.0961C28.4616 20.0961 31.3462 17.3077 31.3462 13.75ZM20.5769 13.75C20.5769 11.3461 22.5962 9.32689 25 9.32689C27.4039 9.32689 29.4231 11.3461 29.4231 13.75C29.4231 16.1538 27.4039 18.173 25 18.173C22.5962 18.173 20.5769 16.25 20.5769 13.75Z" fill="white"/>
<path d="M3.36536 42.3076C3.36536 46.7307 14.2307 49.0383 25 49.0383C35.7692 49.0383 46.6346 46.7307 46.6346 42.3076C46.6346 38.5576 38.4615 36.346 29.8077 35.7691L37.5 22.596C43.0769 12.9807 36.1538 0.961426 25 0.961426C13.8461 0.961426 6.92305 12.9807 12.5 22.596L20.0961 35.7691C11.5384 36.346 3.36536 38.5576 3.36536 42.3076ZM25 2.8845C34.6154 2.8845 40.673 13.2691 35.8654 21.6345L25.6731 39.3268C25.4807 39.7114 25.1923 39.7114 25 39.7114C24.8077 39.7114 24.5192 39.7114 24.3269 39.3268L14.1346 21.6345C9.3269 13.2691 15.3846 2.8845 25 2.8845ZM21.1538 37.6922L22.6923 40.2884C23.1731 41.1537 24.0384 41.6345 25 41.6345C25.9615 41.6345 26.8269 41.1537 27.3077 40.2884L28.8461 37.6922C39.1346 38.2691 44.8077 40.7691 44.8077 42.4037C44.8077 44.3268 37.1154 47.2114 25.0961 47.2114C13.0769 47.2114 5.38459 44.423 5.38459 42.4037C5.28843 40.7691 10.9615 38.173 21.1538 37.6922Z" fill="white"/>
</svg>
