<svg width="50" height="50" viewBox="0 0 50 50" fill="none" xmlns="http://www.w3.org/2000/svg">
<path d="M9.50944 9.50945C9.35489 9.68992 9.27413 9.92207 9.2833 10.1595C9.29247 10.3969 9.39089 10.6222 9.55891 10.7902C9.72692 10.9582 9.95215 11.0566 10.1896 11.0658C10.427 11.075 10.6592 10.9942 10.8396 10.8396C12.6841 9.00018 15.1828 7.96722 17.7877 7.96722C20.3927 7.96722 22.8913 9.00018 24.7359 10.8396C24.8232 10.9288 24.9274 10.9997 25.0424 11.0483C25.1574 11.0969 25.2808 11.1221 25.4057 11.1227C25.5922 11.1219 25.7744 11.0658 25.9291 10.9615C26.0838 10.8572 26.2041 10.7093 26.2748 10.5367C26.3455 10.364 26.3634 10.1742 26.3262 9.9914C26.2891 9.80856 26.1985 9.64084 26.066 9.50945C23.8692 7.31628 20.8919 6.08447 17.7877 6.08447C14.6836 6.08447 11.7062 7.31628 9.50944 9.50945Z" fill="white"/>
<path d="M34.1698 28.066C33.993 27.8903 33.7539 27.7917 33.5047 27.7917C33.2555 27.7917 33.0164 27.8903 32.8396 28.066L31.1321 29.7924L29.349 28C32.0386 25.001 33.4482 21.0688 33.2765 17.0442C33.1048 13.0195 31.3654 9.2217 28.4302 6.4627C25.495 3.70371 21.5969 2.20248 17.5693 2.27996C13.5417 2.35744 9.70426 4.00748 6.87734 6.87732C4.07729 9.71921 2.48729 13.5355 2.44122 17.5248C2.39514 21.5141 3.89656 25.366 6.63022 28.2718C9.36387 31.1776 13.1171 32.9112 17.1018 33.1086C21.0864 33.3059 24.9926 31.9516 28 29.3301L29.7924 31.1226L28.066 32.8396C27.8903 33.0163 27.7917 33.2554 27.7917 33.5047C27.7917 33.7539 27.8903 33.993 28.066 34.1698L41.2736 47.3773C41.4503 47.553 41.6894 47.6517 41.9387 47.6517C42.1879 47.6517 42.427 47.553 42.6038 47.3773L47.3773 42.6037C47.553 42.427 47.6517 42.1879 47.6517 41.9386C47.6517 41.6894 47.553 41.4503 47.3773 41.2735L34.1698 28.066ZM8.21696 27.3585C5.76093 24.8034 4.40482 21.387 4.43985 17.8431C4.47487 14.2992 5.89825 10.9103 8.4043 8.40428C10.9103 5.89823 14.2992 4.47486 17.8431 4.43983C21.387 4.4048 24.8034 5.76092 27.3585 8.21694C29.8145 10.772 31.1706 14.1884 31.1356 17.7323C31.1005 21.2762 29.6772 24.6651 27.1711 27.1711C24.6651 29.6772 21.2762 31.1005 17.7323 31.1356C14.1884 31.1706 10.7721 29.8145 8.21696 27.3585ZM41.9245 45.3679L30.0754 33.5094L33.5094 30.0754L45.3679 41.9245L41.9245 45.3679Z" fill="white"/>
</svg>
