<svg width="50" height="50" viewBox="0 0 50 50" fill="none" xmlns="http://www.w3.org/2000/svg">
<path d="M17.0439 4.43711C18.6055 3.54022 20.3047 2.90794 22.0727 2.5659C22.1704 2.54702 22.2635 2.50907 22.3465 2.45423C22.4295 2.39938 22.501 2.32872 22.5567 2.24626C22.6124 2.16381 22.6513 2.07119 22.6712 1.97369C22.6911 1.87619 22.6917 1.77572 22.6727 1.67802C22.6543 1.58022 22.6167 1.48703 22.5621 1.40381C22.5075 1.3206 22.437 1.24901 22.3546 1.19317C22.2722 1.13733 22.1796 1.09835 22.0821 1.07845C21.9845 1.05856 21.884 1.05816 21.7864 1.07727C19.8544 1.45153 17.9976 2.1424 16.2909 3.12196C16.1249 3.22597 16.0055 3.3902 15.9579 3.58025C15.9102 3.7703 15.938 3.97141 16.0354 4.14144C16.1327 4.31147 16.2921 4.43722 16.4801 4.49234C16.6681 4.54746 16.8702 4.52767 17.0439 4.43711ZM24.9492 2.27272C25.0894 2.29317 29.0568 2.0303 33.2568 4.43711C33.3432 4.48656 33.4384 4.51851 33.5371 4.53115C33.6358 4.54378 33.7361 4.53685 33.8321 4.51075C33.9281 4.48465 34.018 4.4399 34.0968 4.37904C34.1755 4.31818 34.2415 4.24241 34.2909 4.15605C34.3404 4.0697 34.3723 3.97445 34.3849 3.87575C34.3976 3.77705 34.3907 3.67682 34.3646 3.5808C34.3385 3.48477 34.2937 3.39483 34.2328 3.3161C34.172 3.23738 34.0962 3.17141 34.0099 3.12196C29.5189 0.551508 25.8212 0.873477 24.9303 0.757568C24.8308 0.758165 24.7324 0.778352 24.6407 0.816975C24.5491 0.855598 24.4659 0.911902 24.396 0.982671C24.2547 1.1256 24.1761 1.31877 24.1773 1.51969C24.1785 1.72061 24.2595 1.91282 24.4024 2.05405C24.5453 2.19527 24.7385 2.27393 24.9394 2.27272H24.9492ZM41.7477 36.1409C41.5667 36.0541 41.3587 36.0424 41.1692 36.1086C40.9796 36.1748 40.824 36.3133 40.7364 36.4939C39.7911 38.4544 38.7113 40.3471 37.5046 42.1583C37.3933 42.3257 37.3532 42.5304 37.3929 42.7274C37.4326 42.9244 37.5489 43.0975 37.7163 43.2087C37.8837 43.3199 38.0884 43.3601 38.2853 43.3204C38.4823 43.2807 38.6555 43.1643 38.7667 42.997C40.0114 41.128 41.1252 39.1751 42.1 37.1523C42.1873 36.9715 42.1992 36.7635 42.1332 36.574C42.0671 36.3845 41.9285 36.2282 41.7477 36.1409ZM40.6462 13.1879C40.7642 13.3506 40.9419 13.4598 41.1404 13.4915C41.3389 13.5232 41.5418 13.4748 41.7046 13.3568C41.8673 13.2389 41.9765 13.0611 42.0082 12.8626C42.0399 12.6642 41.9914 12.4612 41.8735 12.2985C38.1159 7.1212 31.9849 3.76666 25.1621 3.76666C18.5121 3.76666 12.2303 7.02651 8.35758 12.4864C8.24135 12.6501 8.19493 12.8533 8.22853 13.0513C8.26213 13.2493 8.373 13.4258 8.53675 13.542C8.7005 13.6583 8.90372 13.7047 9.1017 13.6711C9.29968 13.6375 9.4762 13.5266 9.59243 13.3629C13.1841 8.30302 19.0046 5.28181 25.1644 5.28181C31.4614 5.28181 37.153 8.37272 40.6462 13.1879Z" fill="white"/>
<path d="M7.60455 22.2546C7.77858 22.3547 7.98524 22.3817 8.17914 22.3296C8.37304 22.2775 8.53831 22.1505 8.63864 21.9766C9.14243 21.1038 9.58561 20.1258 10.1689 18.6016C10.7962 16.9643 11.6909 15.4426 12.8167 14.0985C12.9367 13.9434 12.992 13.7477 12.9708 13.5527C12.9497 13.3577 12.8538 13.1784 12.7032 13.0526C12.5527 12.9268 12.3593 12.8642 12.1636 12.878C11.9679 12.8918 11.7852 12.9809 11.6538 13.1266C10.4208 14.5992 9.44076 16.2663 8.7538 18.0599C8.20077 19.5054 7.78713 20.4213 7.32576 21.2205C7.2761 21.3067 7.24392 21.4018 7.23106 21.5005C7.21819 21.5991 7.2249 21.6993 7.25079 21.7953C7.27668 21.8914 7.32125 21.9814 7.38196 22.0602C7.44266 22.139 7.5183 22.205 7.60455 22.2546ZM13.8909 10.8917C13.8118 10.9545 13.746 11.0325 13.6975 11.1211C13.6489 11.2097 13.6186 11.3071 13.6082 11.4075C13.5979 11.508 13.6077 11.6096 13.6372 11.7062C13.6666 11.8028 13.7151 11.8926 13.7798 11.9702C13.8445 12.0478 13.924 12.1117 14.0137 12.1581C14.1035 12.2045 14.2016 12.2325 14.3023 12.2404C14.403 12.2483 14.5042 12.2361 14.6001 12.2043C14.696 12.1725 14.7846 12.1219 14.8606 12.0554C17.0939 10.1864 19.7902 8.95497 22.6652 8.49096C22.8634 8.45913 23.0409 8.34989 23.1587 8.18724C23.2765 8.02458 23.3248 7.82183 23.2932 7.62353C23.2783 7.52487 23.2439 7.43016 23.192 7.34493C23.1401 7.2597 23.0717 7.18566 22.9909 7.12713C22.9101 7.0686 22.8184 7.02674 22.7213 7.00402C22.6241 6.98129 22.5234 6.97814 22.425 6.99475C19.2962 7.4955 16.3455 8.84323 13.8909 10.8917ZM25.5826 6.78187C25.1644 6.77429 24.8174 7.10308 24.8076 7.52126C24.7977 7.93944 25.1288 8.28641 25.547 8.29702C28.4577 8.36592 31.295 9.22483 33.7553 10.7819C33.8394 10.835 33.9331 10.8711 34.0311 10.8881C34.1291 10.9051 34.2295 10.9025 34.3266 10.8807C34.4236 10.8589 34.5154 10.8181 34.5967 10.7608C34.678 10.7035 34.7472 10.6307 34.8004 10.5466C34.8536 10.4626 34.8897 10.3689 34.9066 10.2708C34.9236 10.1728 34.9211 10.0724 34.8992 9.97538C34.8774 9.87834 34.8366 9.78655 34.7793 9.70525C34.722 9.62395 34.6492 9.55474 34.5652 9.50156C31.8729 7.79747 28.768 6.85738 25.5826 6.78187ZM41.5432 20.3182C41.9439 20.1993 42.172 19.7773 42.0538 19.3766C41.1518 16.3203 39.4303 13.5693 37.0758 11.422C36.9277 11.2862 36.7317 11.2148 36.531 11.2234C36.3302 11.2321 36.1411 11.3202 36.0053 11.4682C35.8695 11.6163 35.7981 11.8123 35.8067 12.013C35.8154 12.2138 35.9034 12.4029 36.0515 12.5387C38.2034 14.5004 39.7767 17.0141 40.6008 19.8069C40.7212 20.2107 41.147 20.4364 41.5424 20.3182H41.5432ZM38.628 33.9069C37.328 36.7614 35.9174 39.2228 34.1902 41.6546C34.0793 41.8185 34.037 42.0193 34.0723 42.214C34.1076 42.4088 34.2176 42.5819 34.379 42.6965C34.5403 42.8112 34.7401 42.8581 34.9355 42.8273C35.131 42.7965 35.3067 42.6905 35.425 42.5319C37.2099 40.0205 38.6659 37.4788 40.0068 34.5341C40.0847 34.3521 40.0883 34.1469 40.0168 33.9623C39.9453 33.7777 39.8043 33.6284 39.6241 33.5464C39.4439 33.4644 39.2388 33.4563 39.0526 33.5236C38.8664 33.591 38.714 33.7285 38.628 33.9069ZM30.7273 48.2963C31.5379 47.4516 32.8356 45.9038 33.572 44.9819C33.6341 44.9041 33.6802 44.8149 33.7078 44.7193C33.7354 44.6237 33.7439 44.5236 33.7328 44.4248C33.7218 44.3259 33.6913 44.2302 33.6432 44.1431C33.5952 44.056 33.5304 43.9792 33.4527 43.9171C33.3749 43.855 33.2857 43.8089 33.1901 43.7813C33.0945 43.7537 32.9944 43.7452 32.8956 43.7562C32.7967 43.7673 32.701 43.7978 32.6139 43.8458C32.5268 43.8939 32.45 43.9587 32.3879 44.0364C31.7091 44.8864 30.3902 46.4629 29.6356 47.2463C29.5022 47.3921 29.4311 47.5843 29.4374 47.7818C29.4438 47.9793 29.527 48.1666 29.6695 48.3036C29.8119 48.4406 30.0022 48.5165 30.1999 48.5151C30.3975 48.5137 30.5867 48.4352 30.7273 48.2963ZM42.672 22.4781C42.6614 22.3792 42.6314 22.2834 42.5838 22.196C42.5361 22.1087 42.4718 22.0317 42.3944 21.9692C42.317 21.9068 42.228 21.8602 42.1326 21.8322C42.0372 21.8041 41.9372 21.7951 41.8383 21.8057C41.7394 21.8163 41.6435 21.8463 41.5562 21.8939C41.4689 21.9416 41.3919 22.0059 41.3294 22.0833C41.267 22.1608 41.2204 22.2497 41.1924 22.3451C41.1643 22.4405 41.1553 22.5406 41.1659 22.6394C41.2265 23.2152 41.2583 23.8008 41.2591 24.3834C41.2591 26.3705 40.9015 28.3091 40.1947 30.1455C40.0636 30.4864 39.9318 30.822 39.8 31.1546C39.7291 31.3404 39.7342 31.5466 39.814 31.7287C39.8938 31.9109 40.0421 32.0543 40.2267 32.1281C40.4114 32.2019 40.6177 32.2001 40.801 32.1231C40.9844 32.0462 41.1301 31.9002 41.2068 31.7167C41.3424 31.3781 41.475 31.0364 41.6091 30.6887C42.3827 28.6764 42.7777 26.5385 42.7743 24.3826C42.7743 23.7463 42.7394 23.1046 42.672 22.4781Z" fill="white"/>
<path d="M25.1629 9.78638C19.1742 9.78638 13.7099 13.544 11.5667 19.1371C10.3417 22.3409 9.56515 23.6417 7.41288 26.0962C7.3456 26.1708 7.2938 26.2579 7.26052 26.3527C7.22723 26.4474 7.21311 26.5479 7.21898 26.6481C7.22485 26.7484 7.25059 26.8464 7.29471 26.9366C7.33882 27.0269 7.40044 27.1074 7.47596 27.1736C7.55149 27.2398 7.63942 27.2903 7.73464 27.3222C7.82986 27.3541 7.93047 27.3667 8.03062 27.3594C8.13078 27.352 8.22847 27.3249 8.31802 27.2794C8.40758 27.234 8.48721 27.1712 8.55228 27.0947C10.8235 24.5046 11.6924 23.0493 12.9811 19.6796C14.9023 14.669 19.797 11.3015 25.1629 11.3015C34.3439 11.3015 40.6727 20.5288 37.3902 29.0614C34.9394 35.4424 29.4826 45.0955 23.7629 47.7993C23.5879 47.8892 23.4548 48.0437 23.3916 48.23C23.3284 48.4162 23.34 48.6198 23.4241 48.7977C23.5082 48.9755 23.6581 49.1138 23.8421 49.1832C24.0262 49.2526 24.23 49.2478 24.4106 49.1697C30.6129 46.2371 36.1773 36.4447 38.8045 29.6053C42.4636 20.0947 35.4152 9.78638 25.1629 9.78638Z" fill="white"/>
<path d="M29.7955 40.0227C29.916 39.862 29.9678 39.6599 29.9394 39.461C29.9109 39.2621 29.8047 39.0826 29.6439 38.9621C29.4832 38.8415 29.2812 38.7898 29.0823 38.8182C28.8834 38.8466 28.7039 38.9529 28.5833 39.1136C26.4318 41.9833 24.75 44.0204 22.3962 45.1257C22.2145 45.2115 22.0742 45.3657 22.006 45.5547C21.9378 45.7438 21.9474 45.9521 22.0326 46.1341C22.2129 46.5151 22.6652 46.6735 23.0417 46.4977C25.7258 45.2348 27.4121 43.2045 29.7955 40.0227ZM8.71212 32.4038C9.14621 31.2825 9.77273 30.2545 10.5735 29.3507C12.0856 27.6492 13.0212 26.4106 13.8045 25.0719C13.9026 24.8987 13.9285 24.6939 13.8768 24.5017C13.825 24.3095 13.6997 24.1454 13.5279 24.0449C13.3561 23.9444 13.1516 23.9155 12.9587 23.9645C12.7658 24.0135 12.6 24.1365 12.497 24.3068C11.7682 25.553 10.8826 26.7227 9.44015 28.3447C8.52225 29.3778 7.7969 30.567 7.29848 31.856C7.22585 32.0435 7.23066 32.2521 7.31186 32.436C7.39305 32.62 7.54398 32.7641 7.73144 32.8367C7.9189 32.9093 8.12753 32.9045 8.31145 32.8233C8.49536 32.7421 8.63949 32.5912 8.71212 32.4038ZM22.5273 13.106C22.4288 13.1273 22.3356 13.168 22.2531 13.2257C22.1706 13.2834 22.1004 13.3571 22.0466 13.4422C21.9929 13.5274 21.9567 13.6224 21.9401 13.7218C21.9235 13.8211 21.9269 13.9228 21.9501 14.0208C21.9732 14.1188 22.0157 14.2112 22.075 14.2926C22.1343 14.374 22.2093 14.4428 22.2955 14.4949C22.3816 14.547 22.4774 14.5813 22.577 14.596C22.6766 14.6107 22.7782 14.6053 22.8758 14.5803C24.2522 14.2561 25.6816 14.2268 27.0701 14.4942C28.4587 14.7616 29.775 15.3197 30.9326 16.1318C31.0974 16.2467 31.3012 16.2914 31.499 16.2561C31.6969 16.2208 31.8726 16.1084 31.9875 15.9435C32.1024 15.7787 32.1472 15.5749 32.1119 15.3771C32.0765 15.1792 31.9641 15.0035 31.7992 14.8886C30.4665 13.9549 28.9514 13.3134 27.3534 13.0062C25.7554 12.699 24.1112 12.733 22.5273 13.106ZM19.5182 14.2825C17.1591 15.6091 15.3333 17.7159 14.3795 20.2121C14.191 20.7051 13.9945 21.1951 13.7902 21.6818C13.7481 21.774 13.725 21.8736 13.7221 21.9749C13.7193 22.0762 13.7368 22.177 13.7736 22.2714C13.8104 22.3658 13.8658 22.4519 13.9365 22.5245C14.0071 22.5971 14.0916 22.6548 14.185 22.6942C14.2783 22.7336 14.3786 22.7538 14.48 22.7537C14.5813 22.7537 14.6815 22.7333 14.7748 22.6938C14.8681 22.6543 14.9526 22.5964 15.0231 22.5237C15.0937 22.451 15.1489 22.3649 15.1856 22.2704C15.3833 21.8007 15.5841 21.3007 15.7947 20.7545C16.6227 18.5863 18.2091 16.7575 20.2614 15.6038C20.4366 15.5053 20.5655 15.3413 20.6198 15.1478C20.674 14.9543 20.6492 14.7471 20.5508 14.5719C20.4523 14.3967 20.2883 14.2678 20.0948 14.2135C19.9013 14.1593 19.6934 14.1841 19.5182 14.2825ZM30.5114 37.7204C30.6803 37.8291 30.8856 37.8662 31.0819 37.8236C31.2783 37.781 31.4496 37.6621 31.5583 37.4931C33.1265 35.0575 34.4447 32.4416 35.7053 29.2606C35.7757 29.0746 35.7702 28.8683 35.6899 28.6864C35.6096 28.5044 35.4609 28.3613 35.276 28.288C35.0911 28.2147 34.8848 28.2171 34.7016 28.2946C34.5185 28.3721 34.3731 28.5185 34.297 28.7022C33.0735 31.7886 31.7977 34.3219 30.2841 36.6735C30.1754 36.8424 30.1383 37.0477 30.1809 37.244C30.2235 37.4403 30.3424 37.6117 30.5114 37.7204ZM35.7492 26.8341C35.9477 26.8657 36.1505 26.8172 36.3132 26.6993C36.4759 26.5814 36.585 26.4037 36.6167 26.2053C36.7121 25.6068 36.7606 24.9931 36.7606 24.3833C36.7606 21.8053 35.9121 19.2166 34.1682 17.0833C34.041 16.9277 33.8572 16.829 33.6572 16.8089C33.4573 16.7888 33.2575 16.8489 33.1019 16.9761C32.9463 17.1033 32.8476 17.2871 32.8275 17.487C32.8074 17.687 32.8675 17.8868 32.9947 18.0424C34.5098 19.8947 35.2447 22.1409 35.2447 24.3833C35.2447 24.9144 35.2023 25.4469 35.1205 25.9666C35.089 26.1649 35.1376 26.3676 35.2555 26.5301C35.3734 26.6926 35.551 26.8016 35.7492 26.8333V26.8341ZM18.1197 46.081C17.9188 46.081 17.7261 46.1608 17.584 46.3029C17.4419 46.445 17.3621 46.6377 17.3621 46.8386C17.3621 47.0395 17.4419 47.2322 17.584 47.3743C17.7261 47.5164 17.9188 47.5962 18.1197 47.5962C18.7303 47.5962 19.347 47.5462 19.953 47.4492C20.0513 47.4335 20.1455 47.3986 20.2302 47.3465C20.315 47.2943 20.3886 47.226 20.447 47.1455C20.5053 47.0649 20.5472 46.9736 20.5703 46.8768C20.5934 46.78 20.5972 46.6796 20.5814 46.5814C20.5657 46.4832 20.5308 46.389 20.4787 46.3042C20.4266 46.2195 20.3583 46.1458 20.2777 46.0875C20.1971 46.0291 20.1058 45.9872 20.009 45.9641C19.9123 45.9411 19.8119 45.9373 19.7136 45.953C19.1871 46.0378 18.6508 46.081 18.1197 46.081Z" fill="white"/>
<path d="M18.1174 44.5879C20.5682 44.5879 22.9061 43.5349 24.5311 41.7C28.6795 37.0182 30.9432 33.2894 33.1833 27.45C34.903 22.9689 32.6076 17.847 27.9045 16.2583C23.5083 14.7727 18.797 17.0902 17.1871 21.2917C15.6765 25.2371 14.4947 27.1826 11.6909 30.3455C8.63712 33.7871 8.85606 38.9939 12.1894 42.2C13.7799 43.7362 15.9061 44.5927 18.1174 44.5879ZM12.8242 31.3508C15.7712 28.0265 17.0136 25.9803 18.6015 21.8333C19.9197 18.3962 23.7818 16.4659 27.4189 17.6939C31.2735 18.997 33.1932 23.1977 31.7689 26.9068C29.6015 32.5568 27.4106 36.1644 23.3962 40.6955C22.7345 41.4425 21.9218 42.0407 21.0119 42.4505C20.1019 42.8603 19.1154 43.0724 18.1174 43.0727C16.2981 43.0764 14.5488 42.3716 13.2402 41.1076C10.4947 38.4682 10.3121 34.1826 12.8242 31.3508Z" fill="white"/>
<path d="M18.1174 41.5781H18.1553C18.9354 41.5724 19.7057 41.4027 20.4159 41.0799C21.1262 40.7571 21.7606 40.2886 22.278 39.7047C23.5515 38.2675 24.6068 36.9607 25.5053 35.7092C25.6224 35.546 25.6699 35.3429 25.6373 35.1446C25.6047 34.9463 25.4947 34.7691 25.3314 34.652C25.1682 34.5349 24.9651 34.4874 24.7668 34.52C24.5686 34.5526 24.3914 34.6626 24.2742 34.8259C22.0621 37.9092 20.7523 39.8441 18.1174 40.063C17.0766 40.0652 16.0758 39.662 15.3273 38.9387C14.1454 37.8024 13.7879 36.1691 14.2682 34.7395C14.3224 34.5517 14.302 34.3502 14.2113 34.1771C14.1205 34.004 13.9664 33.8726 13.7811 33.8103C13.5958 33.748 13.3936 33.7597 13.2168 33.843C13.0399 33.9262 12.902 34.0745 12.8318 34.2569C12.1727 36.2206 12.653 38.4683 14.2765 40.0304C15.307 41.026 16.6846 41.5811 18.1174 41.5781ZM15.8121 32.5047C18.1242 29.7963 19.4083 27.7372 20.7197 24.6357C20.798 24.4507 20.7997 24.2421 20.7242 24.0558C20.6488 23.8696 20.5025 23.7209 20.3174 23.6425C20.1324 23.5642 19.9238 23.5625 19.7375 23.638C19.5513 23.7134 19.4026 23.8598 19.3242 24.0448C18.0803 26.988 16.8583 28.944 14.6591 31.5206C14.5286 31.6735 14.4642 31.8719 14.48 32.0723C14.4959 32.2727 14.5907 32.4586 14.7436 32.5891C14.8965 32.7196 15.0949 32.784 15.2953 32.7682C15.4957 32.7524 15.6816 32.6576 15.8121 32.5047ZM21.8879 22.0274C22.3882 21.3219 23.1029 20.7966 23.9256 20.5296C24.7483 20.2627 25.6352 20.2683 26.4545 20.5456C27.2558 20.8123 27.9542 21.3217 28.453 22.0031C28.5117 22.0835 28.5857 22.1515 28.6706 22.2032C28.7556 22.255 28.8499 22.2895 28.9483 22.3048C29.0466 22.3201 29.1469 22.3159 29.2436 22.2924C29.3403 22.2689 29.4314 22.2266 29.5117 22.1679C29.5921 22.1092 29.6601 22.0353 29.7118 21.9503C29.7636 21.8653 29.7981 21.771 29.8134 21.6727C29.8287 21.5744 29.8245 21.474 29.801 21.3773C29.7775 21.2806 29.7352 21.1895 29.6765 21.1092C28.9936 20.1752 28.037 19.4767 26.9394 19.1107C25.8119 18.7292 24.5914 18.7212 23.459 19.088C22.3266 19.4548 21.3426 20.1769 20.653 21.1471C20.5457 21.3111 20.506 21.5103 20.5422 21.7029C20.5785 21.8956 20.6878 22.0667 20.8474 22.1806C21.0069 22.2944 21.2043 22.3421 21.3983 22.3137C21.5922 22.2853 21.7677 22.1822 21.8879 22.0274ZM29.2257 24.3887C29.2253 24.8809 29.1347 25.3687 28.9583 25.8281C27.9439 28.4721 26.9992 30.4827 25.8947 32.3478C25.7922 32.5207 25.7626 32.7273 25.8124 32.922C25.8622 33.1167 25.9873 33.2836 26.1602 33.3861C26.3331 33.4886 26.5396 33.5182 26.7343 33.4684C26.9291 33.4186 27.096 33.2935 27.1985 33.1206C28.3485 31.1789 29.3273 29.0971 30.3727 26.3706C30.6151 25.741 30.7394 25.0751 30.7409 24.3933C30.7412 24.2938 30.7219 24.1952 30.6841 24.1032C30.6463 24.0112 30.5908 23.9275 30.5206 23.8569C30.4505 23.7864 30.3671 23.7303 30.2753 23.692C30.1835 23.6536 30.0851 23.6337 29.9856 23.6334H29.9833C29.7828 23.6334 29.5904 23.7129 29.4484 23.8545C29.3064 23.9961 29.2264 24.1882 29.2257 24.3887Z" fill="white"/>
<path d="M25.975 21.9614C25.3578 21.7538 24.6843 21.7921 24.0947 22.0684C23.505 22.3447 23.0445 22.8376 22.8091 23.4448C21.0326 28.0811 19.4864 30.6281 16.1924 34.3432C15.2917 35.3584 15.3561 36.8932 16.3629 37.8614C17.4159 38.8735 19.0788 38.7766 20.025 37.7091C23.7295 33.5258 25.5621 30.5091 27.5629 25.2925C27.6875 24.9703 27.7451 24.626 27.732 24.2808C27.719 23.9355 27.6355 23.5966 27.4869 23.2847C27.3382 22.9729 27.1274 22.6946 26.8675 22.4671C26.6075 22.2395 26.3038 22.0675 25.975 21.9614ZM26.1492 24.7493C24.2212 29.772 22.4576 32.6773 18.8902 36.7038C18.5189 37.1243 17.8447 37.1849 17.3879 36.744C17.199 36.5646 17.087 36.319 17.0755 36.0588C17.0639 35.7986 17.1536 35.544 17.3258 35.3485C20.7606 31.4751 22.3712 28.8205 24.2235 23.9864C24.4182 23.4781 24.9962 23.2341 25.4508 23.3826L25.5242 23.4084C26.0773 23.5955 26.3583 24.2054 26.1492 24.7493Z" fill="white"/>
</svg>
