<svg width="50" height="50" viewBox="0 0 50 50" fill="none" xmlns="http://www.w3.org/2000/svg">
<path d="M37.0631 21.9897C36.3103 22.6641 35.4999 23.2869 34.6958 23.8988C33.5011 24.808 33.7323 24.9334 32.4194 23.9845C29.6398 21.9755 25.5686 18.6743 24.4751 15.2739C23.4818 12.1852 25.8401 8.91172 29.0941 8.75094C30.7875 8.68149 32.4106 9.55203 33.3449 10.9743C33.4438 10.8716 33.5164 10.7338 33.6038 10.6198C36.6332 6.66894 42.5145 9.51305 42.2546 14.2364C42.1022 17.007 38.9817 20.2866 37.0631 21.9897ZM28.946 9.82453C26.9256 10.0312 25.1062 12.0626 25.3241 14.132C25.6062 16.8126 28.9781 19.8981 31.0056 21.5238L33.1878 23.1883C33.6303 23.5178 33.4522 23.4477 33.9954 23.04C35.1648 22.1622 36.2946 21.224 37.3436 20.2046C38.7668 18.7892 41.148 16.1928 41.1627 14.0825C41.1917 9.93281 36.0802 8.05859 34.0209 12.0243C33.9203 12.2181 33.8383 12.4997 33.6941 12.6582C33.1452 13.2621 32.6442 11.9824 32.4843 11.7307C31.7347 10.5507 30.3872 9.65656 28.946 9.82453Z" fill="white"/>
<path d="M36.1863 33.0616C35.5028 33.5939 34.7824 34.0679 34.0522 34.5326L30.2197 36.7321C28.7991 37.4729 27.2241 38.4677 25.5589 38.3235C23.9762 38.1865 20.3027 36.4524 18.8766 35.7672C17.9616 35.3276 17.0715 34.8334 16.13 34.4521L15.8964 35.2574C15.8105 35.4977 15.6812 35.9004 15.4336 36.0114L15.4093 36.0218C15.2466 36.0927 15.0289 36.0821 14.8541 36.0891L10.9473 36.5072C11.102 37.9187 10.6616 37.7165 9.56335 37.7177L6.82938 37.7224C6.47462 37.7313 6.09237 37.8263 5.86538 37.4878L5.82033 37.4224C5.64554 37.1242 5.75048 35.4342 5.75024 35.0106L5.70409 24.3291C5.69791 23.7948 5.54788 23.2709 6.31239 23.2441L8.58429 23.2362L9.96468 23.2309C10.1365 23.2303 10.3277 23.1715 10.4736 23.2863C10.8013 23.5442 10.7905 24.2699 10.8301 24.6582C11.9359 24.6732 13.0349 24.3732 14.1046 24.1264L15.8681 23.7621C17.2587 23.4857 18.5487 23.312 19.9708 23.4254C22.513 23.6281 24.462 25.3563 26.7777 26.1883C27.5547 26.4674 28.3605 26.6223 29.1785 26.7227L31.1196 26.9384C32.0861 27.0849 32.7562 27.4663 33.3444 28.2617C34.7268 28.1266 36.4631 27.1066 37.4527 26.212C37.9785 25.7365 38.4499 25.1868 38.9934 24.7335C39.8775 23.9963 41.2504 23.8635 42.0203 24.8325C43.6151 26.8395 37.46 32.0704 36.1863 33.0616ZM8.95242 24.2902L6.78173 24.2925L6.83055 36.6465L8.51304 36.6442L9.89031 36.5995C9.70195 35.6388 9.65648 33.7998 9.83562 32.9076C10.3044 30.5731 10.7425 29.2841 10.2527 26.8498C10.0821 26.0019 9.79835 25.1548 9.73241 24.2896L8.95242 24.2902ZM18.6164 24.469C17.1893 24.5733 15.8103 24.8631 14.4155 25.1671L13.3746 25.3974C13.2367 25.4281 13.0912 25.4428 12.9562 25.483C13.8394 26.0856 14.4191 26.9502 14.9344 27.8749C15.8944 29.5977 16.5402 31.4117 16.3743 33.4007C17.3951 33.7828 18.3194 34.3299 19.2993 34.7982L23.6084 36.6248C25.0077 37.1524 26.0044 37.5591 27.4527 36.9009C31.8556 34.9 36.9482 31.8041 39.8648 27.9766C40.2304 27.4966 42.1334 25.2546 40.5216 25.2227C39.663 25.3394 39.0842 26.1674 38.5044 26.7352C37.0516 28.1577 35.5589 28.8763 33.6276 29.331C33.6151 30.284 33.3451 30.4617 32.5426 30.8934C29.7194 32.4124 26.1923 31.4731 23.2669 30.7347C22.9445 30.6533 22.1748 30.5221 21.9585 30.3101C21.615 29.9733 21.8764 29.3345 22.3701 29.3689C22.6228 29.3866 22.8875 29.5086 23.1305 29.5804L24.0588 29.8241C25.7138 30.2331 28.2566 30.7988 29.9736 30.5729C30.8287 30.4604 33.2838 29.8134 32.227 28.6217C31.638 27.9576 30.5665 27.9554 29.7509 27.8758L28.5431 27.7274C27.6699 27.5981 26.8377 27.3944 26.021 27.0566C23.859 26.1622 21.8893 24.575 19.4706 24.4685L18.6164 24.469ZM11.077 25.7447C11.1227 26.115 11.2624 26.4913 11.3325 26.8615C11.7559 29.0995 11.4941 30.4642 11.0127 32.6216C10.8066 33.5456 10.6613 34.4597 10.8239 35.4109L14.215 35.0249L14.8035 34.9899C15.1373 34.3579 15.3068 33.1848 15.3032 32.483C15.2921 30.3212 13.5447 26.8749 11.7066 25.9116C11.5491 25.8291 11.2518 25.6958 11.077 25.7447Z" fill="white"/>
<path d="M13.6366 34.5236C11.3119 34.5098 11.1863 31.3481 13.4063 31.0877C15.6341 30.952 15.8438 34.3141 13.6366 34.5236ZM13.384 32.156C12.5663 32.4746 12.7749 33.4818 13.7081 33.4454C14.5154 33.1703 14.2534 32.0342 13.384 32.156Z" fill="white"/>
</svg>
