<svg width="51" height="51" viewBox="0 0 51 51" fill="none" xmlns="http://www.w3.org/2000/svg">
<g clip-path="url(#clip0_644_87)">
<path d="M20.6786 36.4078C19.9111 36.4079 19.1686 36.4079 18.4103 36.4079C18.4103 37.4692 18.4103 38.4858 18.4103 39.5598C16.7955 39.5598 15.1645 39.5598 13.5045 39.5598C13.444 35.3754 13.3831 31.1584 13.3218 26.9167C21.5734 26.7973 29.8019 26.6782 38.0731 26.5586C38.0731 28.0298 38.0731 29.4778 38.0731 30.9495C31.5081 31.0445 24.9181 31.1398 18.329 31.2351C18.329 31.6167 18.329 31.9751 18.329 32.3638C24.1472 32.2804 29.943 32.1973 35.7877 32.1136C35.7877 33.4809 35.7877 34.8265 35.7877 36.2266C35.0441 36.2266 34.27 36.2196 33.496 36.228C31.4185 36.2505 29.341 36.2772 27.2636 36.3067C25.077 36.3377 22.8904 36.3738 20.6786 36.4078Z" fill="white"/>
<path d="M37.8949 17.8961C37.9249 20.0144 37.9536 22.1075 37.9827 24.2373C37.6711 24.2373 37.3698 24.2341 37.0686 24.2379C35.9794 24.2514 34.8902 24.2708 33.801 24.2761C33.7028 24.2766 33.5747 24.2174 33.5101 24.1429C32.5927 23.0866 31.684 22.0228 30.7731 20.9609C30.7204 20.8995 30.667 20.8386 30.5883 20.748C30.5883 21.9616 30.5883 23.1348 30.5883 24.3514C29.035 24.3514 27.4783 24.3514 25.9018 24.3514C25.8416 20.1588 25.7809 15.9418 25.7195 11.6694C26.1999 11.6694 26.6539 11.6754 27.1078 11.6682C28.104 11.6524 29.1003 11.6335 30.0962 11.606C30.2419 11.602 30.3193 11.6464 30.4015 11.7642C31.1878 12.8914 31.9817 14.0134 32.7737 15.1367C32.8244 15.2086 32.877 15.2793 32.9607 15.3947C32.9607 14.0997 32.9607 12.8661 32.9607 11.5825C34.5629 11.5825 36.1775 11.5825 37.8022 11.5825C37.8325 13.6676 37.863 15.7692 37.8949 17.8961Z" fill="white"/>
<path d="M18.1425 12.6746C18.1819 15.2654 18.2213 17.8309 18.2613 20.4325C20.3442 20.4019 22.4241 20.3714 24.5574 20.3401C24.5574 21.7 24.5574 23.0448 24.5574 24.4198C20.9485 24.4719 17.3075 24.5244 13.6399 24.5774C13.5788 20.3382 13.5181 16.1214 13.4567 11.8577C15.0157 11.8577 16.5568 11.8577 18.1425 11.8577C18.1425 12.099 18.1425 12.3741 18.1425 12.6746Z" fill="white"/>
</g>
<defs>
<clipPath id="clip0_644_87">
<rect width="50.6939" height="50.6939" fill="white" transform="translate(0.29834 0.153076)"/>
</clipPath>
</defs>
</svg>
