<svg width="78" height="33" viewBox="0 0 78 33" fill="none" xmlns="http://www.w3.org/2000/svg">
<path d="M16.1109 32.0817C13.2658 31.3142 11.6276 29.238 11.5794 26.341C11.5572 24.9985 11.6047 23.6543 11.5607 22.3129C11.4682 19.4947 13.5609 17.0889 16.3123 16.5334C19.8903 15.8109 23.3167 18.5438 23.3449 22.1987C23.3574 23.8222 23.3898 25.4554 23.2412 27.0683C22.9036 30.7315 19.372 32.6635 16.6226 32.164C16.4668 32.1357 16.3085 32.1212 16.1109 32.0817Z" fill="white"/>
<path d="M31.5973 2.07021C32.0458 0.799963 32.0458 0.800863 33.3204 0.806038C33.9033 0.808406 34.4861 0.80644 35.1064 0.80644C35.1064 5.33499 35.1064 9.85023 35.1064 14.4186C34.06 14.4186 33.0095 14.4186 31.9172 14.4186C31.9172 12.956 31.9172 11.4699 31.9172 9.98372C31.8792 9.97095 31.8413 9.95818 31.8033 9.94541C31.696 10.1821 31.5709 10.4124 31.4846 10.6565C31.0798 11.8007 30.6745 12.945 30.2959 14.098C30.2068 14.3694 30.0837 14.442 29.8097 14.4456C28.2047 14.4665 28.2075 14.4728 27.6809 12.9544C27.3753 12.0734 27.0612 11.1953 26.7459 10.3177C26.7094 10.2162 26.6403 10.1263 26.4662 10.0547C26.4662 11.4991 26.4662 12.9436 26.4662 14.4167C25.3606 14.4167 24.3276 14.4167 23.2108 14.4167C23.2108 13.5946 23.2126 12.7869 23.2105 11.9792C23.201 8.37293 23.1928 4.7666 23.1759 1.16032C23.1744 0.84504 23.2423 0.737166 23.5982 0.761637C24.3728 0.814889 25.1522 0.807117 25.9296 0.803933C26.234 0.802686 26.3803 0.895786 26.4877 1.20831C27.3094 3.59984 28.1576 5.98224 29.0001 8.36662C29.0378 8.47341 29.0992 8.57187 29.1959 8.76852C30.0103 6.49299 30.795 4.30053 31.5973 2.07021Z" fill="white"/>
<path d="M9.14848 20.3519C8.97239 21.6646 9.09971 22.4558 7.29548 23.905C8.16742 24.1545 8.94517 24.509 9.48107 25.2776C10.9187 27.3397 10.4993 31.135 7.38383 32.0707C7.08309 32.161 6.761 32.2205 6.44815 32.2234C4.75133 32.2395 3.0543 32.234 1.35734 32.2332C1.25519 32.2331 1.15305 32.2099 1.01404 32.1929C1.01404 26.9471 1.01404 21.726 1.01404 16.4309C2.96382 16.4838 4.91287 16.1799 6.80437 16.7847C8.31704 17.2683 9.1565 18.5732 9.14848 20.3519Z" fill="white"/>
<path d="M17.3717 14.4874C15.0104 14.5849 13.0364 13.2914 12.2159 11.1245C12.118 10.8659 12.0564 10.5762 12.0557 10.3007C12.0508 8.43144 11.8012 6.51378 12.1308 4.70279C12.8335 0.842206 17.4654 -0.256233 20.1351 1.81972C21.4562 2.84706 22.165 4.19644 22.1426 5.88223C22.1222 7.41752 22.1917 8.9712 21.9789 10.4826C21.678 12.6204 19.8711 14.1873 17.7342 14.4374C17.629 14.4497 17.5245 14.4688 17.3717 14.4874Z" fill="white"/>
<path d="M31.7588 26.0656C32.8413 28.1004 33.907 30.0995 35.0439 32.2322C33.7304 32.2322 32.5163 32.2483 31.3038 32.2122C31.1488 32.2076 30.9498 31.9563 30.8598 31.7753C30.3117 30.6728 29.7907 29.5569 29.2564 28.4474C29.1961 28.3223 29.1097 28.2097 29.0191 28.0653C28.3877 29.3524 27.7754 30.6159 27.1433 31.8693C27.0683 32.018 26.887 32.2124 26.7511 32.2155C25.5544 32.2426 24.3569 32.2312 23.0354 32.2312C23.3976 31.5386 23.7057 30.9372 24.0247 30.3416C25.0478 28.4311 26.0813 26.5261 27.0892 24.6077C27.1746 24.4452 27.1745 24.1589 27.0884 23.997C25.7987 21.5741 24.4876 19.1626 23.1836 16.7472C23.1446 16.675 23.1289 16.5901 23.0694 16.4133C24.3447 16.4133 25.5558 16.4028 26.7661 16.4282C26.8994 16.431 27.0794 16.6141 27.1512 16.7571C27.7728 17.9957 28.3747 19.2442 29.0344 20.5964C29.2926 20.0885 29.5103 19.676 29.7138 19.2566C30.1134 18.4328 30.4883 17.5964 30.9135 16.7862C31.0046 16.6125 31.2628 16.4247 31.4491 16.4194C32.6139 16.386 33.7801 16.4025 35.0322 16.4025C34.932 16.6422 34.8755 16.8164 34.7903 16.9752C33.5582 19.2713 32.3295 21.5694 31.0798 23.8559C30.8768 24.2274 30.8589 24.5229 31.0991 24.8785C31.3443 25.2415 31.5302 25.6445 31.7588 26.0656Z" fill="white"/>
<path d="M52.7295 11.5786C52.6205 10.9426 52.2781 10.7256 51.6832 10.811C51.354 10.8582 51.0127 10.819 50.677 10.8235C49.7892 10.8356 49.7848 10.8352 49.4998 11.6918C49.2334 12.4927 48.9912 13.302 48.7055 14.0957C48.6496 14.251 48.446 14.4569 48.3052 14.4611C47.2664 14.4921 46.2262 14.4779 45.1228 14.4779C45.5003 13.1499 45.8486 11.8988 46.2119 10.652C47.1319 7.49494 48.056 4.33907 48.991 1.18646C49.0352 1.03738 49.1984 0.813532 49.31 0.811278C50.6146 0.78491 51.92 0.794379 53.1994 0.794379C54.5387 5.37027 55.8563 9.8721 57.1938 14.4418C56.0652 14.4418 55.0081 14.4544 53.9522 14.4252C53.8267 14.4217 53.651 14.2111 53.5949 14.0606C53.2939 13.253 53.0234 12.434 52.7295 11.5786Z" fill="white"/>
<path d="M42.9844 8.90433C41.9676 9.63864 40.8424 9.74497 39.6032 9.64925C39.6032 11.2604 39.6032 12.838 39.6032 14.4429C38.5482 14.4429 37.5685 14.4429 36.5389 14.4429C36.5389 9.91582 36.5389 5.40061 36.5389 0.837041C36.5986 0.82944 36.713 0.801944 36.8273 0.802249C38.1704 0.805805 39.5135 0.810552 40.8566 0.820958C42.3529 0.832549 43.4203 1.55278 44.0276 2.88712C44.7803 4.54111 44.7138 6.2136 43.8763 7.82455C43.6708 8.21984 43.3079 8.53329 42.9844 8.90433Z" fill="white"/>
<path d="M65.023 7.1286C66.4352 8.14953 67.2796 9.40997 67.2147 11.2044C67.1695 12.4513 66.5309 13.2935 65.5112 13.8097C63.8091 14.6713 62.0307 14.7748 60.2629 13.9535C59.1832 13.4519 58.512 12.5752 58.0684 11.4008C59.0314 10.9758 59.9879 10.5537 60.9085 10.1475C61.2009 10.5001 61.4585 10.8808 61.7848 11.1886C62.3335 11.7062 62.9593 11.6759 63.4066 11.167C63.7689 10.7548 63.6336 9.98022 63.0761 9.59741C62.2487 9.0293 61.3905 8.50611 60.5464 7.96237C59.8011 7.48232 59.0799 6.97955 58.673 6.14694C57.7621 4.28321 58.493 2.13691 60.3895 1.30157C61.8504 0.658136 63.357 0.577819 64.8532 1.237C65.8517 1.67686 66.4615 2.46635 66.8299 3.46753C66.9389 3.76386 66.8837 3.96882 66.555 4.08697C65.9261 4.31299 65.2995 4.54802 64.6846 4.80908C64.3735 4.94117 64.2418 4.85132 64.0581 4.5815C63.8196 4.23126 63.5217 3.88204 63.1695 3.65783C62.6358 3.31799 61.813 3.71294 61.6826 4.33047C61.6481 4.49376 61.7064 4.73436 61.8148 4.85859C62.0671 5.1477 62.3495 5.4268 62.6668 5.63958C63.4277 6.14971 64.2158 6.61931 65.023 7.1286Z" fill="white"/>
<path d="M68.7554 11.1196C69.519 10.7907 70.2422 10.472 70.9652 10.1535C71.2734 10.5091 71.5568 10.8865 71.8917 11.211C72.3859 11.6898 73.1239 11.6308 73.56 11.1169C73.8503 10.7748 73.708 10.0232 73.2153 9.68006C72.2324 8.99544 71.2205 8.35239 70.2171 7.69748C68.7184 6.71929 68.1169 5.33947 68.4813 3.59892C68.7327 2.39785 69.5863 1.63689 70.6788 1.19835C71.8885 0.712788 73.1542 0.635849 74.4138 1.04036C75.594 1.41937 76.3923 2.21459 76.8592 3.35959C77.0215 3.75763 76.9164 3.97137 76.5089 4.11583C75.7991 4.36743 75.1041 4.66067 74.4962 4.89977C74.045 4.45558 73.6485 3.99754 73.1816 3.6284C72.8443 3.36163 72.2072 3.5981 71.8562 4.04956C71.5822 4.40196 71.7135 4.7492 72.0042 4.98387C72.6029 5.46719 73.212 5.94955 73.8685 6.34688C75.0426 7.05749 76.2029 7.77838 76.8305 9.05925C77.8926 11.2268 77.2946 13.407 74.6699 14.1954C73.0108 14.6937 71.3266 14.7056 69.8552 13.6485C69.2785 13.2341 68.8379 12.5909 68.4346 11.9858C68.0594 11.4227 68.1175 11.384 68.7554 11.1196Z" fill="white"/>
<path d="M1.61692 12.051C1.39739 11.2163 1.06104 10.4247 1.01994 9.61803C0.943739 8.12292 0.899819 6.60028 1.09698 5.12308C1.40484 2.81648 3.11011 0.881324 5.74783 0.809939C7.1648 0.771591 8.49369 0.993725 9.49366 2.04542C10.0234 2.60254 10.3633 3.34403 10.7588 4.01995C10.8103 4.10801 10.7254 4.37897 10.6286 4.43441C9.85068 4.88038 9.05473 5.29496 8.28581 5.70758C8.00231 5.27266 7.79439 4.78862 7.44562 4.44939C6.37597 3.409 4.63069 3.827 4.21627 5.25493C3.77309 6.78197 3.77018 8.37071 4.17524 9.9015C4.49839 11.1228 5.95297 12.0192 7.28908 11.1366C7.68382 10.8759 7.95945 10.4348 8.33989 10.0219C9.08824 10.4406 9.90255 10.8869 10.702 11.3584C10.7796 11.4042 10.8327 11.6439 10.7841 11.7293C9.1574 14.5896 5.42292 15.4517 2.85841 13.5233C2.36762 13.1543 2.03753 12.5715 1.61692 12.051Z" fill="white"/>
<path d="M37.3619 18.6608C37.3619 17.4886 38.3122 16.5383 39.4844 16.5383H77.3698V29.2729C77.3698 30.8554 76.087 32.1382 74.5046 32.1382H37.3619V18.6608Z" fill="#EE181F"/>
<path d="M68.4913 22.3858C68.5214 22.3671 68.541 22.3406 68.5828 22.2682C68.6715 22.1395 68.7275 22.0491 68.7834 21.9587C68.7834 21.9587 68.7796 21.9499 68.8073 21.9469C68.8536 21.9121 68.8722 21.8802 68.8908 21.8483C69.0496 21.7585 69.2083 21.6686 69.4284 21.5538C69.6751 21.4557 69.8605 21.3824 70.046 21.3091C70.5108 21.4477 70.9756 21.5863 71.4954 21.7679C72.6594 22.9359 72.5972 25.2502 71.4241 26.511C71.4241 26.511 71.4268 26.514 71.3959 26.5168C71.3362 26.5476 71.3075 26.5755 71.2788 26.6035C71.2225 26.6224 71.1663 26.6412 71.0525 26.6867C70.8195 26.7659 70.644 26.8186 70.4437 26.8656C70.4189 26.86 70.3732 26.8827 70.331 26.8737C70.1171 26.8485 69.9455 26.8321 69.7553 26.7916C69.6989 26.7554 69.6611 26.7435 69.6019 26.7169C69.5805 26.7022 69.5295 26.6932 69.5094 26.6685C69.3949 26.5987 69.3005 26.5535 69.2039 26.5099C69.2017 26.5116 69.2024 26.5061 69.1923 26.4818C69.1571 26.4277 69.1253 26.4157 69.0694 26.3983C69.0022 26.3468 68.9523 26.3185 68.8921 26.2632C68.8492 26.218 68.8167 26.1996 68.7855 26.1869C68.7867 26.1926 68.7894 26.1814 68.7822 26.1442C68.6314 25.775 68.3725 25.445 68.3667 25.1106C68.3509 24.2033 68.4423 23.2942 68.4913 22.3858Z" fill="white"/>
<path d="M57.3173 23.5434C57.3092 23.6899 57.301 23.8364 57.278 24.0628C57.2505 24.8616 57.2294 25.5783 56.7337 26.2033C56.6275 26.3233 56.5482 26.4249 56.444 26.5324C56.3881 26.5566 56.3673 26.5828 56.3255 26.6196C56.244 26.6552 56.1936 26.6882 56.0995 26.7258C55.6001 26.7598 55.1443 26.7892 54.6718 26.8007C54.6239 26.7632 54.5929 26.7635 54.5301 26.7665C54.4112 26.7057 54.3244 26.6623 54.2278 26.5946C54.1948 26.5393 54.164 26.5264 54.1247 26.5246C54.1239 26.5177 54.1105 26.5211 54.1012 26.4926C54.0323 26.4133 53.9727 26.3624 53.9042 26.2867C53.8697 26.2382 53.8441 26.2147 53.8162 26.1563C53.7156 25.9981 53.6173 25.8748 53.5059 25.759C53.4926 25.7665 53.5201 25.7536 53.5206 25.7183C53.484 25.6249 53.4468 25.5668 53.4127 25.4937C53.4158 25.4786 53.3958 25.4551 53.3974 25.4051C53.3602 24.6442 53.3215 23.9333 53.2908 23.1776C53.2927 22.9512 53.2865 22.7697 53.2917 22.5422C53.3301 21.4778 53.3301 21.4778 54.136 21.3494C54.2317 21.375 54.3274 21.4007 54.4664 21.481C54.5226 22.0656 54.5283 22.5957 54.5501 23.1252C54.5769 23.777 54.594 24.4308 54.6673 25.0779C54.6859 25.2425 54.8707 25.4474 55.0317 25.5257C55.5235 25.7647 55.9672 25.484 56.0402 24.8221C56.127 24.0345 56.1342 23.2361 56.1406 22.4421C56.1501 21.2736 55.9544 21.3677 57.2109 21.4099C57.2109 21.4099 57.2087 21.4176 57.2124 21.4621C57.2497 22.1855 57.2835 22.8645 57.3173 23.5434Z" fill="white"/>
<path d="M44.8767 23.7878C45.0678 23.9472 45.2588 24.1067 45.4958 24.31C45.5988 24.3818 45.6559 24.4098 45.7129 24.4378C45.7129 24.4378 45.7157 24.4176 45.7071 24.4586C45.7792 24.6266 45.8599 24.7536 45.9406 24.8806C45.9394 24.9451 45.9382 25.0095 45.9412 25.1472C46.0236 25.8177 45.6645 26.2105 45.3 26.6009C45.3 26.6009 45.301 26.5933 45.2644 26.5976C45.1721 26.6363 45.1164 26.6708 45.0184 26.7065C44.3661 26.8201 43.7537 26.9823 43.1647 26.6023C43.1455 26.5579 43.1231 26.5525 43.0707 26.5495C43.0258 26.5251 43.0063 26.5186 42.9777 26.4885C42.9466 26.4346 42.917 26.4217 42.8782 26.4187C42.8767 26.4111 42.8612 26.4125 42.8502 26.3807C42.7104 26.1949 42.5815 26.0409 42.4527 25.8869C42.4535 25.8049 42.4543 25.7228 42.4769 25.5895C42.5239 25.5154 42.5351 25.4871 42.5323 25.4532C42.9346 25.2164 43.3089 25.2226 43.7213 25.4809C43.9026 25.5944 44.3257 25.6473 44.3967 25.5503C44.6116 25.2569 44.4658 24.9531 44.1645 24.7453C43.8309 24.5151 43.4874 24.2975 43.1673 24.0498C42.3527 23.4196 42.2506 22.958 42.7073 22.006C42.8348 21.8544 42.952 21.7411 43.1309 21.5945C44.2225 21.0811 45.6803 21.5814 45.7035 22.6128C45.5621 22.7076 45.4348 22.842 45.3365 22.8234C45.0181 22.7629 44.7144 22.6279 44.3971 22.5576C44.1805 22.5095 43.9506 22.5214 43.7266 22.5066C43.8015 22.7369 43.8125 23.0325 43.9659 23.1828C44.2215 23.4334 44.5683 23.591 44.8767 23.7878Z" fill="white"/>
<path d="M50.8973 21.3831C51.0623 21.3831 51.1789 21.3948 51.3457 21.4534C51.4074 21.8216 51.419 22.1428 51.3929 22.4694C51.2564 22.4961 51.1576 22.5173 51.014 22.5262C50.2219 22.5145 50.223 22.5145 50.2236 23.2695C50.2245 24.3093 50.238 25.3495 50.2084 26.3885C50.2037 26.5562 50.0039 26.7183 49.8579 26.8779C49.7739 26.8816 49.7262 26.8904 49.6356 26.8842C49.4132 26.8493 49.2336 26.8294 49.0507 26.8099C49.0474 26.8101 49.0501 26.8162 49.0513 26.7733C49.0451 26.5874 49.0376 26.4446 49.0412 26.2538C49.0426 25.8137 49.033 25.4215 49.0308 24.98C49.0306 24.2222 49.0231 23.5137 49.0278 22.7715C48.9662 22.6695 48.8925 22.6013 48.7743 22.5361C48.552 22.5536 48.3743 22.568 48.1735 22.5659C48.0972 22.5519 48.044 22.5544 47.9591 22.5287C47.8982 22.1725 47.869 21.8443 47.8779 21.5002C48.0751 21.4497 48.2342 21.4152 48.4304 21.3862C48.5155 21.3804 48.5636 21.3692 48.6117 21.3579C49.3574 21.3702 50.1031 21.3826 50.8973 21.3831Z" fill="white"/>
<path d="M61.7699 26.6267C61.6182 26.6616 61.4665 26.6965 61.2319 26.7376C60.5399 26.7738 59.9308 26.8037 59.3218 26.8337C59.3151 26.6519 59.3085 26.4702 59.3051 26.1957C59.2943 24.7173 59.2801 23.3316 59.266 21.9459C59.2801 21.8329 59.2943 21.7199 59.3291 21.5456C59.378 21.4274 59.4062 21.3705 59.4344 21.3136C59.482 21.3128 59.5296 21.3119 59.6388 21.3121C59.7185 21.3078 59.7366 21.3026 59.7547 21.2974C60.1542 21.338 60.5537 21.3787 61.0045 21.4309C61.0558 21.4424 61.0846 21.4504 61.0846 21.4504L61.1012 21.4257C61.1904 21.4549 61.2796 21.4842 61.4331 21.5412C61.5518 21.5819 61.6062 21.5949 61.6607 21.6079C61.7136 21.6443 61.7665 21.6806 61.8643 21.7591C62.7662 22.6457 63.0589 23.6501 62.8625 24.8416C62.7419 25.5736 62.269 26.059 61.8513 26.5965C61.8513 26.5965 61.8655 26.6083 61.8368 26.6021C61.8081 26.5959 61.7699 26.6267 61.7699 26.6267Z" fill="white"/>
<path d="M66.0529 21.3435C66.1096 21.3729 66.1279 21.3993 66.1749 21.4327C66.1997 23.1727 66.2034 24.9003 66.2162 26.6771C66.2253 26.7262 66.2043 26.7573 66.2067 26.7759C66.0726 26.8123 65.9366 26.8383 65.7995 26.8466C65.0905 26.8892 65.0718 26.871 65.0387 26.1337C65.0308 25.4134 65.0344 24.739 65.0261 24.0163C65.0246 23.4097 65.0442 22.8516 65.0437 22.2934C65.0428 21.3245 65.0376 21.3245 66.0529 21.3435Z" fill="white"/>
</svg>
