<svg width="44" height="41" viewBox="0 0 44 41" fill="none" xmlns="http://www.w3.org/2000/svg">
<path d="M35.4432 31.8082C35.171 32.1922 34.8684 32.1095 34.7241 32.0255C34.5796 31.943 34.116 31.6082 34.116 31.6082L33.4927 32.2922L32.5737 32.5589C32.5737 32.5589 32.718 32.927 32.718 33.4111V40.7582H33.1963C33.1963 40.1982 33.6052 40.0977 33.9412 40.0977V32.8411C33.9483 32.8498 33.9593 32.8613 33.9754 32.8736C33.9771 32.8747 33.9785 32.8761 33.9802 32.8773C33.9858 32.8814 33.992 32.8855 33.999 32.8897C34.1983 33.0106 34.8635 33.1214 35.2045 32.6544C35.6395 32.0587 35.6995 31.9889 35.6995 31.9889L35.4435 31.8082H35.4432Z" fill="#EF4B24"/>
<path d="M7.53726 31.8911L6.96123 31.675L6.70581 32.5751L6.88197 32.6431L7.53726 31.8911Z" fill="#EF4B24"/>
<path d="M8.6397 31.8911L8.06486 31.675L7.80811 32.5751L7.98441 32.6431L8.6397 31.8911Z" fill="#EF4B24"/>
<path d="M8.47992 33.9978C8.47992 33.8644 8.52718 33.7471 8.62422 33.6297L6.62501 32.863L6.00291 33.5631L5.07546 34.0472C5.07546 34.0472 5.47533 34.7153 5.90572 34.8313C5.68215 34.9153 5.04346 35.2153 5.04346 35.2153C5.04346 35.2153 5.18657 35.4486 5.18657 35.5993V38.7532C5.18657 38.8866 5.23502 38.9533 5.12272 39.1359L6.56101 39.4706L7.3772 38.0184V38.7199L7.26475 39.1693L8.33517 39.4706L8.9112 38.5358L8.47947 38.3691V33.9978H8.47992ZM7.26519 37.585L6.80161 38.4186L6.33789 38.2186V35.1486L7.26519 34.7008V37.585ZM6.30841 33.9286C6.30841 33.9286 7.29764 34.2249 7.60639 34.3139C7.32845 34.5367 6.37004 34.6256 6.30841 33.9286Z" fill="#EF4B24"/>
<path d="M15.9602 38.4514L14.7928 38.102V37.334L16.4546 34.3802L14.9525 32.8293L14.2818 33.6629L13.4419 33.8975C13.4419 33.8975 13.5862 34.1149 13.5862 34.3976V38.3354C13.5862 38.7367 13.4585 38.9196 13.4585 38.9196L15.7355 39.5037L16.5198 38.2022L16.0998 38.0657L15.9602 38.4515V38.4514ZM14.7775 34.2796L15.5961 35.2043L15.5853 35.2249L14.7775 36.7069V34.2796Z" fill="#EF4B24"/>
<path d="M26.2052 33.9641C26.2052 33.6294 26.3968 33.3467 26.3968 33.3467L24.8626 32.812L23.9352 34.6309V33.6802C23.9352 33.5628 23.999 33.3468 23.999 33.3468L22.5453 32.7788L21.5694 34.531V33.6629C21.5694 33.4295 21.6653 33.2468 21.6653 33.2468L20.4672 32.7788L19.8757 33.6803L20.3713 33.9137V38.285C20.3713 38.8024 20.259 39.1359 20.259 39.1359L21.4265 39.4199L21.9221 38.5357L21.586 38.4023V35.0819C21.586 35.0819 22.0498 34.3713 22.2413 34.0206C22.4176 34.054 22.5927 34.138 22.7689 34.2047V38.3185C22.7689 38.9692 22.641 39.136 22.641 39.136L23.8239 39.4374L24.3515 38.4852L23.9516 38.336V35.1487L24.6542 34.0046L25.0706 34.1207V38.3852C25.0706 38.8198 24.9416 39.0865 24.9416 39.0865L26.2202 39.4199L26.7005 38.5023L26.2049 38.3357V33.9643L26.2052 33.9641Z" fill="#EF4B24"/>
<path d="M31.8153 33.7296C31.8153 33.4803 31.975 33.2629 31.975 33.2629L30.7755 32.8123L30.1841 33.747L30.6963 33.9805V38.2358C30.6963 38.6531 30.5365 39.0691 30.5365 39.0691L31.8151 39.4038L32.3107 38.5183L31.8151 38.3023V33.7296H31.8153Z" fill="#EF4B24"/>
<path d="M32.0387 31.8083L31.4473 31.6082L31.1919 32.5417L31.3835 32.6257L32.0387 31.8083Z" fill="#EF4B24"/>
<path d="M36.8498 33.8287L37.3285 32.9112H36.1942V31.873L35.4625 32.9644L34.7406 33.6728L34.5962 33.8109L34.6759 33.8125H35.0918V38.2354C35.0918 38.8528 34.9321 39.0528 34.9321 39.0528L36.2108 39.4035L36.769 38.5021L36.2108 38.2354V33.8285H36.8496L36.8498 33.8287Z" fill="#EF4B24"/>
<path d="M10.1969 33.4921L9.60638 33.792L9.29258 33.9372C9.29258 33.9372 9.3754 34.1803 9.3754 34.3976V38.469C9.3754 38.8196 9.24636 38.9863 9.24636 38.9863L10.4107 39.341C9.50341 39.4794 9.15258 40.3276 9.09302 40.6L9.35896 40.6942C9.58134 39.9469 10.8955 40.3357 11.3272 40.6372C11.5355 40.4357 11.9653 39.9373 11.9653 39.9373L12.7631 39.7081V33.9247C12.7631 33.7407 12.8756 33.6246 12.8756 33.6246L10.7014 32.8789L10.1969 33.4924V33.4921ZM11.5802 39.5252C11.257 39.3924 10.9719 39.3318 10.7209 39.3234L11.5802 37.718V39.5252ZM11.5968 35.1817V37.1166L10.9568 38.3848L10.5417 38.2688V33.9973L11.734 34.4033L11.4371 34.6817C11.4371 34.6817 11.5968 34.8817 11.5968 35.1818V35.1817Z" fill="#EF4B24"/>
<path d="M18.5591 36.1112L18.8425 36.3604C18.9439 36.3025 19.0306 36.2354 19.1051 36.1611V36.1619C19.1051 36.1619 19.1113 36.1558 19.1223 36.144C19.154 36.1109 19.1833 36.0765 19.2103 36.0408C19.2112 36.0397 19.212 36.0386 19.2129 36.0374C19.2152 36.0345 19.2175 36.0317 19.2196 36.0288C19.4085 35.7868 19.7494 35.2383 19.589 34.5857C19.589 34.5857 19.4747 34.1421 19.171 32.8829L18.8424 32.8839L18.0538 34.3433V33.5631C18.0538 33.3137 18.133 33.1791 18.133 33.1791L17.0945 32.7964L16.471 33.7471L16.4507 33.7772L16.4338 33.8053L16.9182 34.0284V38.4852C16.9182 38.8027 16.8389 39.0028 16.8389 39.0028L18.5326 39.4374L19.2518 38.1852L18.8421 37.9996L18.7562 38.4361L18.0689 38.2187V34.9488L18.491 34.1805C18.491 34.1805 18.6394 34.7191 18.8177 35.3374C18.9698 35.8651 18.5587 36.1115 18.5587 36.1115L18.5591 36.1112Z" fill="#EF4B24"/>
<path d="M1.15726 31.5063H0.819464L0.824946 33.5639L1.17933 32.7128H2.42917C2.42917 32.7128 2.85423 32.7218 3.66967 32.395L3.47692 32.5663C3.19469 32.8018 3.02446 32.936 2.82267 33.0048C2.85452 33.0556 2.86993 33.1556 2.86993 33.2556V34.4151H1.94367V34.2084H1.5912V35.8989L1.92515 35.1193H2.90179V39.631C2.90179 39.631 1.32645 37.6929 1.23934 37.5748C1.15948 37.4663 0.941396 37.2431 0.996361 37.022L0.938433 37.0211C0.523302 37.6721 0.37648 38.4431 0.776351 38.9781C1.17622 39.5118 2.32709 40.8764 2.32709 40.8764L3.36566 40.0586L4.29296 39.7322V32.6463C4.29296 32.2954 4.54794 31.9893 4.7881 31.9893V31.7444H1.15992L1.15726 31.5065V31.5063Z" fill="#EF4B24"/>
<path d="M29.5718 38.4514L28.4043 38.102V37.334L30.0662 34.3802L28.5641 32.8293L27.8934 33.6629L27.0535 33.8975C27.0535 33.8975 27.1978 34.1149 27.1978 34.3976V38.3354C27.1978 38.7367 27.0701 38.9196 27.0701 38.9196L29.3471 39.5037L30.1314 38.2022L29.7114 38.0657L29.5718 38.4515V38.4514ZM28.3889 34.2796L29.2075 35.2043L29.1967 35.2249L28.3889 36.7069V34.2796Z" fill="#EF4B24"/>
<path d="M39.8318 38.468L38.6644 38.1186V37.3506L40.3262 34.3968L38.8241 32.8459L38.1534 33.6795L37.3135 33.9141C37.3135 33.9141 37.4578 34.1315 37.4578 34.4142V38.352C37.4578 38.7533 37.3301 38.9362 37.3301 38.9362L39.6071 39.5203L40.3914 38.2188L39.9714 38.0823L39.8318 38.4681V38.468ZM38.6489 34.2962L39.4675 35.2209L39.4567 35.2415L38.6489 36.7235V34.2962Z" fill="#EF4B24"/>
<path d="M42.6282 38.4524L41.9409 38.235V34.9651L42.363 34.1968C42.363 34.1968 42.5114 34.7355 42.6897 35.3537C42.8418 35.8814 42.4307 36.1278 42.4307 36.1278L42.7141 36.377C42.8155 36.3191 42.9021 36.252 42.9767 36.1777V36.1785C42.9767 36.1785 42.9829 36.1724 42.9938 36.1606C43.0255 36.1275 43.0549 36.0931 43.0818 36.0574C43.0827 36.0563 43.0836 36.0552 43.0845 36.054C43.0867 36.0511 43.0891 36.0483 43.0912 36.0454C43.2801 35.8034 43.621 35.2549 43.4605 34.6023C43.4605 34.6023 43.3463 34.1587 43.0426 32.8995L42.714 32.9006L41.9254 34.3599V33.5797C41.9254 33.3303 42.0046 33.1957 42.0046 33.1957L40.966 32.813L40.3426 33.7637L40.3223 33.7938L40.3054 33.8219L40.7897 34.045V38.5019C40.7897 38.8193 40.7105 39.0194 40.7105 39.0194L42.4042 39.454L43.1233 38.2018L42.7137 38.0162L42.6278 38.4527L42.6282 38.4524Z" fill="#EF4B24"/>
<path d="M25.0799 24.2863C24.8239 23.9197 24.6941 23.5229 24.7834 23.0578C24.8519 22.7011 24.894 22.3362 24.9012 21.9693C24.9092 21.5656 24.8738 21.1502 24.9583 20.7619C25.0435 20.3706 25.1601 20.0085 25.0655 19.594C24.9929 19.2751 25.1118 19.1763 25.434 19.1206C26.0281 19.0178 26.6089 18.8708 27.1363 18.5637C27.2065 18.5228 27.3215 18.4901 27.3089 18.3997C27.276 18.1649 27.4547 18.0699 27.5757 17.9312C27.9781 17.47 28.2537 16.9593 28.1869 16.3187C28.1704 16.1609 28.1079 16.1135 27.9474 16.1679C27.6382 16.2728 27.3265 16.3753 27.0009 16.4186C26.4875 16.4869 25.9777 16.5685 25.4918 16.7587C25.3789 16.8029 25.2621 16.8392 25.1445 16.8682C25.0821 16.8836 24.9931 16.9164 24.9562 16.8498C24.9232 16.7901 24.9787 16.7195 25.0227 16.6678C25.1983 16.4609 25.4215 16.316 25.6586 16.1911C26.1641 15.9248 26.6988 15.7295 27.2369 15.5413C27.7526 15.361 28.2765 15.2016 28.7581 14.9339C29.5406 14.4991 30.0868 13.8657 30.437 13.0405C30.7054 12.408 30.9205 11.7435 31.4595 11.2555C31.9709 10.7924 32.2648 10.1916 32.4213 9.52461C32.5573 8.94428 32.6686 8.36055 32.49 7.76778C32.4595 7.66659 32.4478 7.5454 32.3114 7.49429C32.3045 7.55237 32.2973 7.59726 32.2943 7.64244C32.2405 8.46322 32.065 9.25245 31.667 9.97944C31.5297 10.2304 31.3744 10.474 31.0765 10.6122C31.0557 10.4264 31.0677 10.2638 31.0954 10.1003C31.1984 9.49246 31.4398 8.9148 31.5012 8.29877C31.5845 7.46451 31.5005 6.65692 31.0543 5.92147C30.9743 5.78962 30.8809 5.66176 30.716 5.61153C30.7092 5.63998 30.7006 5.65553 30.7034 5.66842C30.7132 5.71243 30.7267 5.75554 30.7393 5.7988C30.9657 6.57484 31.0703 7.36006 30.9353 8.16677C30.8174 8.87184 30.4062 9.0714 29.8016 8.70738C29.2967 8.40337 28.914 7.96794 28.5448 7.52036C28.3678 7.30569 28.2058 7.07857 28.0325 6.85085C27.8831 7.13664 27.9451 7.46673 28.1923 7.74023C28.5912 8.18128 28.9865 8.62545 29.3536 9.09377C29.9687 9.87855 30.3406 10.7367 30.1554 11.7619C30.1001 12.0674 30.0268 12.3667 29.8429 12.6282C29.8105 12.4646 29.8013 12.3058 29.7902 12.1471C29.7545 11.6373 29.6893 11.1319 29.5155 10.6482C29.424 10.3934 29.3165 10.1437 29.069 9.975C29.0638 10.0153 29.0564 10.0383 29.0589 10.06C29.0631 10.0975 29.0755 10.1341 29.0808 10.1715C29.2082 11.0684 29.3608 11.9626 29.288 12.8757C29.2208 13.7168 28.5398 14.5148 27.723 14.669C27.9461 14.0971 28.056 13.5104 28.1172 12.9137C28.1781 12.3197 28.2086 11.725 28.1838 11.094C27.978 11.2204 27.9251 11.3976 27.8664 11.5662C27.7408 11.9269 27.7154 12.3095 27.6371 12.6806C27.4332 13.647 26.9942 14.4527 26.0959 14.9437C25.9564 15.02 25.8148 15.1058 25.6343 15.1176C25.7106 14.7923 25.7521 14.4848 25.7635 14.1727C25.7968 13.2574 25.6999 12.3424 25.7568 11.4271C25.7595 11.3851 25.7777 11.3216 25.7195 11.3133C25.6845 11.3082 25.6362 11.3438 25.6053 11.373C25.4611 11.5094 25.398 11.689 25.3531 11.876C25.1959 12.5314 25.2278 13.2089 25.1201 13.8703C24.9835 14.7087 24.6815 15.4643 24.047 16.0585C23.9548 16.1449 23.86 16.2003 23.7268 16.2077C23.2151 16.236 22.7235 16.3701 22.2407 16.5301C22.0775 16.5842 21.9378 16.5756 21.7818 16.5238C21.3048 16.3649 20.8187 16.2402 20.3142 16.2106C20.1924 16.2034 20.0951 16.16 20.005 16.0852C19.6462 15.7874 19.3789 15.4279 19.213 14.9871C18.9215 14.213 18.8667 13.4009 18.8027 12.5893C18.7746 12.2321 18.7307 11.8779 18.5738 11.5496C18.519 11.4348 18.4508 11.3274 18.2831 11.3063C18.3828 12.5856 18.1382 13.8565 18.4104 15.1505C18.2486 15.0791 18.1286 15.033 18.0147 14.9748C17.0927 14.5041 16.6383 13.7014 16.4217 12.7289C16.331 12.3215 16.3044 11.9004 16.1596 11.5047C16.103 11.35 16.0438 11.1965 15.8475 11.0955C15.8632 12.3255 15.8906 13.5204 16.3327 14.6988C15.5603 14.4285 15.0136 13.9869 14.8193 13.1941C14.6462 12.4887 14.7599 11.784 14.8394 11.0805C14.8805 10.7177 14.9387 10.3566 14.9969 9.93944C14.5738 10.3107 14.4735 10.7741 14.3739 11.2306C14.2745 11.6859 14.2594 12.1545 14.2112 12.6436C14.012 12.3581 13.8785 11.8453 13.8543 11.4524C13.8041 10.6367 14.076 9.93055 14.5518 9.28667C14.9556 8.74042 15.4101 8.23714 15.8617 7.73104C16.1199 7.44169 16.1679 7.14761 16.019 6.86285C15.954 6.87144 15.9463 6.93471 15.9174 6.97486C15.4528 7.62052 14.9584 8.23907 14.2858 8.68442C13.6967 9.07436 13.2867 8.91376 13.1269 8.22884C12.9893 7.63948 13.0325 7.0473 13.1496 6.46017C13.2064 6.17512 13.2853 5.89451 13.3608 5.58472C13.1733 5.66265 13.0698 5.78739 12.989 5.92266C12.7728 6.28386 12.6318 6.67395 12.571 7.09264C12.4594 7.86112 12.548 8.60871 12.7746 9.34816C12.8983 9.75158 13.006 10.1626 12.9463 10.6024C12.0034 9.78284 11.8553 8.64546 11.7327 7.47621C11.5799 7.58733 11.5579 7.73326 11.5274 7.86853C11.4427 8.24499 11.4593 8.62338 11.5213 9.00206C11.6489 9.78018 11.8667 10.5275 12.4448 11.0959C12.9411 11.584 13.273 12.1595 13.5066 12.8021C13.9717 14.0807 14.8793 14.8886 16.1537 15.3157C16.8589 15.552 17.568 15.7805 18.2366 16.1122C18.4891 16.2374 18.7386 16.372 18.9158 16.6023C18.9744 16.6784 19.0724 16.7764 19.0081 16.8593C18.9427 16.9435 18.822 16.8818 18.7374 16.8313C18.5387 16.7125 18.3231 16.65 18.099 16.5989C17.4258 16.4451 16.7263 16.428 16.0679 16.1947C15.7832 16.0938 15.7399 16.1301 15.7363 16.4341C15.7295 17.006 15.9787 17.4779 16.3398 17.8983C16.4764 18.0573 16.6617 18.1807 16.6309 18.433C16.626 18.473 16.6728 18.5351 16.7127 18.5625C17.2767 18.9494 17.8621 19.2842 18.5781 19.2689C18.95 19.2611 18.9983 19.3183 18.9209 19.6921C18.9101 19.7442 18.9048 19.7999 18.8818 19.8464C18.8122 19.9867 18.828 20.1181 18.8806 20.2626C19.0386 20.6958 19.1055 21.1434 19.0852 21.6067C19.0743 21.8573 19.0811 22.1113 19.1087 22.3605C19.2085 23.2619 19.6614 24.0792 19.7133 25.0178C19.8857 24.9173 19.9677 24.7813 20.0688 24.653C20.5938 25.371 21.5486 25.6503 21.8304 26.5753C22.1001 26.3845 22.2273 26.1476 22.3587 25.8992C22.381 25.9384 22.4007 25.9575 22.4014 25.9774C22.4048 26.067 22.4029 26.157 22.4029 26.2821C23.07 25.7209 23.2736 24.9125 23.6815 24.2309C23.1709 24.636 22.9542 25.2763 22.4727 25.7245C22.4002 25.6083 22.4387 25.4501 22.2947 25.3889C22.2476 25.6461 22.1888 25.8889 21.9769 26.0811C21.7612 25.6306 21.3852 25.3474 20.9954 25.0771C20.6298 24.8234 20.2979 24.5367 20.1152 24.1232C20.0074 24.134 19.9909 24.245 19.8903 24.2795C19.7722 23.5426 19.3411 22.8922 19.3227 22.0723C19.4259 22.2344 19.4897 22.355 19.5731 22.4602C19.6522 22.5599 19.7069 22.6851 19.8391 22.7473C19.4216 22.0942 19.4423 21.3788 19.503 20.6444C19.7536 20.764 19.9968 20.8693 20.2299 20.994C20.4883 21.1324 20.5259 21.4104 20.6104 21.6812C20.6661 21.5824 20.7095 21.505 20.7619 21.412C20.821 21.5394 20.8164 21.6453 20.7921 21.7504C20.7274 22.0314 20.6481 22.3097 20.5949 22.5929C20.4788 23.2127 20.6114 23.3641 21.2227 23.3358C21.6015 23.3182 21.6923 23.1613 21.5285 22.8049C21.4729 22.8537 21.4354 22.9232 21.3433 22.9227C21.2251 22.9221 21.1024 22.9258 21.0443 22.8042C20.9702 22.6489 20.9994 22.4867 21.0805 22.3433C21.1556 22.2102 21.288 22.1556 21.4342 22.2011C21.7855 22.3103 22.1307 22.3119 22.4833 22.2031C22.6611 22.1483 22.8004 22.2366 22.8714 22.402C22.9389 22.5592 22.9869 22.7405 22.8273 22.8641C22.6832 22.9758 22.5193 22.9546 22.3893 22.8018C22.2547 23.2604 22.3214 23.347 22.7865 23.3377C22.8017 23.3374 22.817 23.3365 22.8322 23.3361C23.2511 23.3219 23.4345 23.1153 23.3646 22.7039C23.3203 22.4426 23.2385 22.1877 23.1785 21.9289C23.1391 21.7585 23.0964 21.5858 23.1872 21.3941C23.2625 21.4883 23.2646 21.6028 23.3819 21.669C23.38 20.9299 24.0074 20.8881 24.4651 20.642C24.5067 21.3687 24.5288 22.0744 24.1559 22.7273C24.3831 22.5744 24.4894 22.3434 24.6209 22.1265C24.6249 22.2803 24.6264 22.4283 24.5839 22.5755C24.4074 23.1873 24.2962 23.8044 24.4357 24.4426C24.5379 24.9101 24.6442 25.3772 24.7264 25.8483C24.8006 26.2734 24.7783 26.6903 24.4935 27.0706C24.4314 26.9434 24.4794 26.8029 24.3523 26.6985C24.2413 27.1972 23.8917 27.4752 23.4589 27.728C23.5138 27.5295 23.5441 27.3637 23.4859 27.1611C23.3268 27.4152 23.1164 27.5686 22.922 27.7388C22.5718 28.0455 22.2974 28.4062 22.1704 28.8606C22.0627 29.2463 22.0451 29.63 22.2457 30.0211C22.5118 29.6467 22.9041 29.5282 23.2789 29.3838C23.7867 29.1881 24.3293 29.0654 24.746 28.6429C24.7532 28.8787 24.6255 29.0383 24.5101 29.2281C25.2076 29.0352 25.6445 28.6326 25.7743 27.9233C25.8823 28.0474 25.8379 28.1771 25.8642 28.3368C26.0644 28.1326 26.1792 27.9133 26.2648 27.6791C26.5717 26.8385 26.3755 26.0761 25.8823 25.37C25.6251 25.0018 25.3372 24.6548 25.0802 24.2865L25.0799 24.2863ZM19.2078 18.3461C19.0861 18.8165 18.9506 18.88 18.4443 18.6896C18.5519 18.6004 18.6688 18.569 18.7485 18.4582C18.6895 18.425 18.636 18.3889 18.5781 18.363C18.1138 18.1548 17.7852 17.8046 17.5446 17.3668C17.4492 17.1931 17.3438 17.0675 17.1229 17.0411C16.9001 17.0146 16.6836 16.9338 16.4153 16.8642C16.5791 17.1545 16.7081 17.4137 16.9072 17.6291C17.1074 17.8454 17.3643 17.9933 17.6352 18.1973C16.8994 18.0077 16.421 17.5595 16.063 16.9749C15.9861 16.8493 16.0045 16.6647 15.9815 16.5069C15.9703 16.4298 16.0242 16.4055 16.0799 16.4267C16.6887 16.6581 17.3757 16.5937 17.9567 16.9429C18.2246 17.1039 18.5 17.2454 18.7192 17.4748C18.7978 17.557 18.8841 17.6339 18.9752 17.7019C19.2903 17.937 19.3048 17.9712 19.2079 18.3461H19.2078ZM19.2885 16.5697C18.7282 15.9362 17.9627 15.6922 17.1896 15.4578C16.8413 15.3521 16.5019 15.2179 16.1552 15.1064C15.5912 14.9247 15.1965 14.5085 14.7807 14.1161C15.4402 14.5536 16.1267 14.9219 16.9408 15.0554C16.7511 14.7837 16.5613 14.5302 16.4876 14.2032C17.0345 14.9583 17.7778 15.3684 18.7079 15.5053C18.6031 15.211 18.5471 14.9258 18.5652 14.6232C18.7103 14.9421 18.8249 15.2727 18.99 15.5819C19.1638 15.9076 19.3641 16.1926 19.7653 16.2959C19.6302 16.3935 19.4734 16.4202 19.4057 16.5624C19.3719 16.6332 19.3355 16.623 19.2884 16.5698L19.2885 16.5697ZM20.7348 19.7632C20.7142 19.8103 20.6407 19.8287 20.6175 19.8051C20.4619 19.6475 20.2877 19.7519 20.1206 19.7556C20.0709 19.7566 20.0029 19.7824 19.9761 19.7214C19.944 19.6485 20.0813 19.6845 20.0456 19.5916C19.9485 19.5584 19.8416 19.5214 19.7343 19.4851C19.7019 19.4741 19.6539 19.4403 19.6503 19.506C19.6362 19.7655 19.5315 19.5503 19.5062 19.5245C19.4376 19.4546 19.4073 19.3594 19.3804 19.2618C19.3395 19.1143 19.4122 19.0766 19.5309 19.0187C19.9463 18.8156 20.2665 18.9178 20.4524 19.3437C20.5038 19.4614 20.5275 19.588 20.6757 19.634C20.7179 19.6472 20.7601 19.7061 20.7351 19.7633L20.7348 19.7632ZM21.4759 22.0292C21.7294 21.8322 22.1439 21.8259 22.4801 22.0256C22.1344 22.1513 21.8048 22.1442 21.4759 22.0292ZM23.1773 18.7845C22.9308 18.9354 22.8279 19.194 22.6934 19.4269C22.598 19.3818 22.6133 19.2778 22.5408 19.2063C22.2805 19.4491 22.167 19.7753 22.0218 20.1156C21.8771 19.7709 21.7509 19.4464 21.4931 19.1903C21.4387 19.2688 21.4418 19.3612 21.3591 19.4257C21.2048 19.2125 21.0945 18.9611 20.8661 18.8009C20.7924 18.9005 20.8521 19.0302 20.7415 19.1151C20.4669 18.6661 20.1112 18.3478 19.5247 18.4453C19.6959 18.1496 20.1084 18.0143 20.6957 18.1909C20.569 17.9878 20.2894 17.8382 19.9502 17.8354C19.7348 17.8336 19.726 17.749 19.7872 17.5859C19.8519 17.4133 19.964 17.2793 20.1583 17.1463C19.936 17.1697 19.8272 17.2948 19.6945 17.3847C19.626 16.7417 20.1105 16.559 20.9841 16.8805C21.0282 16.7998 20.8998 16.7789 20.921 16.7054C21.2544 16.714 21.5025 16.894 21.7153 17.2811C21.7676 17.1755 21.6858 17.0365 21.6869 16.9346C21.7048 16.9307 21.734 16.9624 21.7374 16.9669C21.8793 17.1559 22.0255 16.9979 22.1692 16.9727C22.2572 16.9571 22.3447 16.9381 22.446 16.9181C22.4408 17.0582 22.3387 17.1681 22.3925 17.3244C22.6507 16.9253 22.9552 16.6155 23.5031 16.6546C23.4057 16.7629 23.2866 16.7861 23.2388 16.9198C23.5106 16.7956 23.768 16.8073 24.0351 16.8581C24.2157 16.8925 24.2963 16.993 24.336 17.1521C24.3656 17.2706 24.3874 17.3896 24.3815 17.5134C24.3674 17.8084 24.3505 17.8228 24.057 17.8394C23.7741 17.8554 23.5311 17.9647 23.2903 18.2117C23.7684 18.0601 24.1788 18.0449 24.5827 18.4478C23.9421 18.3468 23.5779 18.6582 23.2989 19.1303C23.2034 19.0156 23.2367 18.8891 23.177 18.7846L23.1773 18.7845ZM24.4496 19.595C24.4248 19.6149 24.3984 19.6321 24.3679 19.6128C24.2674 19.5498 24.1567 19.5361 24.0359 19.5719C24.0074 19.5803 23.9781 19.5861 23.952 19.5925C23.9422 19.6691 24.0726 19.6526 24.0406 19.7251C24.0159 19.7811 23.9447 19.759 23.8947 19.7556C23.7253 19.7442 23.5515 19.6624 23.3937 19.8026C23.3792 19.8155 23.3111 19.7965 23.2951 19.7734C23.2579 19.7198 23.2924 19.6555 23.3391 19.6395C23.4908 19.5873 23.5185 19.4562 23.576 19.3323C23.787 18.8773 24.1927 18.7773 24.6076 19.0636C24.646 19.0901 24.6553 19.1156 24.6537 19.1547C24.6467 19.3297 24.5907 19.4818 24.4496 19.5947V19.595ZM24.6883 16.6421C24.5941 16.4707 24.4643 16.3717 24.2456 16.3273C25.0615 16.0305 25.1494 15.275 25.454 14.6748C25.4938 14.7975 25.5027 14.9293 25.4673 15.0699C25.4325 15.2083 25.3892 15.3446 25.3398 15.5162C25.8278 15.4225 26.2774 15.2975 26.6779 15.0452C27.0747 14.7951 27.3461 14.4179 27.6174 14.0423C27.5439 14.424 27.3445 14.7413 27.0877 15.0644C27.8954 14.9126 28.5768 14.581 29.2352 14.0989C29.0128 14.4602 28.2929 14.9687 27.783 15.14C27.1861 15.3403 26.5727 15.5004 25.9936 15.7428C25.515 15.9431 25.0365 16.1799 24.6882 16.6423L24.6883 16.6421ZM24.999 17.7302C25.2248 17.6397 25.397 17.4514 25.5773 17.2882C26.0216 16.8864 26.5364 16.6592 27.1345 16.6009C27.3437 16.5805 27.5511 16.5152 27.7522 16.4483C27.918 16.3934 27.9614 16.4146 27.9467 16.6015C27.9033 17.1545 27.596 17.5211 27.1504 17.8007C26.9314 17.938 26.6932 18.0311 26.4333 18.0938C26.9222 17.8062 27.3098 17.4302 27.5342 16.8795C27.2556 16.945 26.9982 17.0059 26.7407 17.0657C26.6226 17.0931 26.5469 17.1602 26.4852 17.2694C26.1909 17.79 25.83 18.2447 25.2292 18.4397C25.2861 18.5781 25.4266 18.5935 25.526 18.693C25.4878 18.709 25.4647 18.7212 25.4401 18.7285C25.0489 18.8448 24.9729 18.8067 24.8454 18.4284C24.8236 18.3638 24.8113 18.2961 24.7906 18.2311C24.7184 18.0047 24.7357 17.8358 24.9992 17.73L24.999 17.7302Z" fill="#EF4B24"/>
<path d="M36.3918 14.328C36.3832 13.3029 36.2823 12.4104 36.0962 11.5298C35.5487 8.94001 34.4007 6.6433 32.5779 4.72662C29.2499 1.22734 25.1567 -0.276878 20.3468 0.213812C18.391 0.413377 16.5517 1.01415 14.8682 2.02219C10.7117 4.51135 8.31752 8.17434 7.74224 12.9888C7.52711 14.7889 7.68134 16.5811 8.19218 18.327C9.38172 22.3932 11.8758 25.3885 15.6399 27.3273C15.6694 27.3424 15.6967 27.3561 15.7231 27.3693L15.7253 27.3704C15.7829 27.399 15.8333 27.4224 15.878 27.4406L16.1595 27.5699L16.1683 27.5508L16.4909 26.8954L16.4747 26.888L16.2893 26.8043C14.3538 25.9094 12.7167 24.6267 11.3906 22.9587C9.6327 20.7478 8.64746 18.231 8.44805 15.4076C8.32863 13.7167 8.51338 12.0613 9.01652 10.446C9.84841 7.77551 11.3623 5.55762 13.5499 3.81902C15.7601 2.06249 18.2814 1.08245 21.1076 0.889252C22.4413 0.798137 23.7591 0.888363 25.0559 1.19312C28.3988 1.97879 31.1059 3.75531 33.0983 6.55026C35.3077 9.64967 36.0685 13.1038 35.4296 16.8613C35.1181 18.6941 34.4365 20.3806 33.4159 21.9304C32.053 24 30.2552 25.5809 28.037 26.6837C27.9687 26.7176 27.9121 26.7459 27.8638 26.7715L27.5847 26.9047L27.569 26.9121L27.879 27.5676L27.8875 27.5867L28.0725 27.5006C28.0964 27.4916 28.1219 27.4804 28.1496 27.467C28.1709 27.4566 28.1919 27.4456 28.2133 27.4351L28.3186 27.3861L28.3167 27.3834C29.2444 26.9207 30.1211 26.3785 30.935 25.734C32.4603 24.5259 33.7007 23.0728 34.6329 21.3665C35.8505 19.1372 36.4398 16.7478 36.3922 14.328H36.3918Z" fill="#EF4B24"/>
<path d="M27.5791 26.4204C27.9732 26.2396 28.3627 26.0472 28.7296 25.8172C32.7692 23.2852 34.9582 19.6526 35.1961 14.877C35.2768 13.2554 35.0333 11.668 34.4845 10.1425C33.2818 6.79854 31.1032 4.28819 27.9251 2.68471C25.1612 1.29027 22.2433 0.940181 19.2214 1.59118C16.2546 2.23032 13.7976 3.74002 11.8612 6.07628C9.84644 8.50721 8.87202 11.322 8.82861 14.4924C8.84995 15.2007 8.88921 15.9311 9.01425 16.6531C9.40479 18.9102 10.309 20.9389 11.7465 22.7245C13.0306 24.3194 14.6034 25.5482 16.4579 26.4153L16.4632 26.4178C16.4662 26.4192 16.4691 26.4208 16.4721 26.4221C16.4931 26.4319 16.5148 26.4421 16.5364 26.45L16.6479 26.499L16.7613 26.2602L16.5776 26.1753C15.1027 25.4929 13.8019 24.5644 12.6864 23.3853C10.3911 20.9589 9.19989 18.0657 9.10344 14.7311C9.05707 13.1264 9.32316 11.5638 9.87726 10.0542C10.7646 7.6368 12.2402 5.64781 14.301 4.11218C16.3644 2.57463 18.6907 1.72807 21.2691 1.57666C22.8773 1.48228 24.446 1.67355 25.9749 2.16868C28.4387 2.9665 30.4859 4.37798 32.1084 6.39763C33.7676 8.46291 34.6875 10.827 34.9096 13.4603C35.0028 14.5651 34.9373 15.6664 34.7379 16.7609C34.2806 19.2694 33.1729 21.4471 31.4362 23.3066C30.3003 24.5228 28.9702 25.4747 27.463 26.1801C27.452 26.1851 27.4412 26.1904 27.4307 26.1959L27.2808 26.266L27.3953 26.5066L27.5732 26.423C27.5751 26.4221 27.5772 26.4211 27.5791 26.4204Z" fill="#EF4B24"/>
<path d="M21.2807 28.9847C21.248 28.7258 21.3166 28.5115 21.3855 28.2998C21.5307 27.8536 21.4969 27.4337 21.2351 27.0352C20.9429 26.5905 20.5512 26.2268 20.2457 25.7644C20.1707 25.9114 20.2451 26.0415 20.2059 26.1842C19.9078 25.9664 19.6649 25.7207 19.4494 25.4463C19.159 25.0767 19.1031 24.6307 19.0262 24.1876C18.9771 23.9039 18.9408 23.611 18.7773 23.3162C18.6996 23.8602 18.4747 24.2987 18.201 24.713C17.7243 25.4346 17.4025 26.1904 17.5142 27.0883C17.6238 27.9702 18.4877 28.8724 19.3393 29.1889C19.3554 29.0566 19.2748 28.9206 19.3603 28.7721C19.9332 29.5821 20.7202 29.9461 21.7124 29.9671C21.5227 29.5661 21.4939 29.1613 21.4945 28.697C21.4026 28.8209 21.3505 28.8911 21.281 28.9849L21.2807 28.9847ZM19.0697 27.9035C18.2712 27.7226 17.9582 26.5708 18.2856 25.8378C18.3169 26.1806 18.3744 26.4975 18.5492 26.7769C18.7197 27.0497 18.9566 27.263 19.2267 27.4744C19.088 27.5461 18.9824 27.5275 18.8599 27.5095C18.8649 27.6783 18.984 27.777 19.0697 27.9033V27.9035Z" fill="#EF4B24"/>
<path d="M23.1168 23.5861C22.3469 23.4904 21.5645 23.5089 20.7837 23.5831C20.961 24.1913 21.211 24.4263 21.7274 24.467C22.4334 24.5227 22.7429 24.4135 22.9113 24.0494C22.2618 24.2156 21.8974 24.1784 21.6532 23.9208C22.549 24.0092 22.9602 23.9085 23.1168 23.5861Z" fill="#EF4B24"/>
<path d="M23.8738 19.388C24.0104 19.3459 24.1205 19.3121 24.2305 19.2782C24.0753 19.1806 23.9582 19.1939 23.8738 19.388Z" fill="#EF4B24"/>
<path d="M19.7622 19.2701C19.8881 19.3098 19.9947 19.3433 20.1642 19.3968C20.0409 19.2051 19.937 19.1497 19.7622 19.2701Z" fill="#EF4B24"/>
<path d="M21.6027 6.54979H20.3794V7.29412H21.6027V10.1246H22.3527V7.29412H23.6216V6.54979H22.3527V5.32617H21.6027V6.54979Z" fill="#EF4B24"/>
<path d="M22.3555 10.4417L23.0706 16.0178L23.35 15.9507L22.5454 10.4417H22.3555Z" fill="#EF4B24"/>
<path d="M29.4329 24.2318L27.1037 18.8108L26.7808 18.9566L29.0604 24.5214L29.4329 24.2318Z" fill="#EF4B24"/>
<path d="M28.334 15.3809L32.4909 20.89L32.7143 20.4989L28.5576 15.2581L28.334 15.3809Z" fill="#EF4B24"/>
<path d="M34.1893 16.018L30.5241 13.2803L30.4124 13.5484L34.1223 16.4426L34.1893 16.018Z" fill="#EF4B24"/>
<path d="M32.044 10.8777L31.8428 11.1346L34.0777 12.0622L33.9884 11.6598L32.044 10.8777Z" fill="#EF4B24"/>
<path d="M28.4121 11.9728L28.9932 12.4421V12.0623L28.4121 11.6711V11.9728Z" fill="#EF4B24"/>
<path d="M30.6136 8.15109L30.6694 7.92767L29.0491 7.7041L29.3396 7.98352L30.6136 8.15109Z" fill="#EF4B24"/>
<path d="M23.853 7.05615V7.26846L27.8464 7.77722L27.7477 7.55277L23.853 7.05615Z" fill="#EF4B24"/>
<path d="M23.853 6.553V6.74308L30.4572 5.87149L30.3677 5.65918L23.853 6.553Z" fill="#EF4B24"/>
<path d="M23.3501 6.26263H23.7076L28.792 4.17305L28.5686 4.0166L23.3501 6.26263Z" fill="#EF4B24"/>
<path d="M22.6797 6.26279H22.9256L27.0043 3.15642L26.7808 3.03345L22.6797 6.26279Z" fill="#EF4B24"/>
<path d="M22.6016 5.92723V6.15065L25.4118 2.57596L25.1827 2.50781L22.6016 5.92723Z" fill="#EF4B24"/>
<path d="M22.6016 5.13972V5.51411L23.9984 2.27351L23.7972 2.20654L22.6016 5.13972Z" fill="#EF4B24"/>
<path d="M22.1208 5.0335H22.2886L22.6795 2.12817H22.4785L22.1208 5.0335Z" fill="#EF4B24"/>
<path d="M24.842 13.4925L22.6016 8.28516V8.62043L24.7991 13.9639L24.842 13.4925Z" fill="#EF4B24"/>
<path d="M27.0042 13.6042L27.1159 13.2802L25.9648 11.928V12.2745L27.0042 13.6042Z" fill="#EF4B24"/>
<path d="M25.3789 11.1178L22.6016 7.68164V7.86046L25.2337 11.3357L25.3789 11.1178Z" fill="#EF4B24"/>
<path d="M27.7195 11.1179L22.948 7.57007H22.6797L27.6076 11.3359L27.7195 11.1179Z" fill="#EF4B24"/>
<path d="M23.3501 7.57007L28.7026 9.8161L28.9484 9.64854L23.7217 7.57007H23.3501Z" fill="#EF4B24"/>
<path d="M21.5913 10.4441H21.4024L20.6025 15.9531L20.8803 16.0202L21.5913 10.4441Z" fill="#EF4B24"/>
<path d="M17.1238 19.0888L16.8027 18.9429L14.5557 24.2341L14.9261 24.5239L17.1238 19.0888Z" fill="#EF4B24"/>
<path d="M15.648 15.3832L15.4259 15.2603L11.2935 20.5011L11.5157 20.8922L15.648 15.3832Z" fill="#EF4B24"/>
<path d="M9.89406 16.4444L13.5821 13.5501L13.471 13.282L9.82739 16.0197L9.89406 16.4444Z" fill="#EF4B24"/>
<path d="M10.0272 11.6624L9.93848 12.0646L12.1602 11.1372L11.9602 10.8801L10.0272 11.6624Z" fill="#EF4B24"/>
<path d="M14.9927 12.4446L15.5703 11.9754V11.6736L14.9927 12.0647V12.4446Z" fill="#EF4B24"/>
<path d="M13.382 8.15338L14.6484 7.98582L14.9373 7.70654L13.3264 7.92996L13.382 8.15338Z" fill="#EF4B24"/>
<path d="M16.2309 7.55487L16.1328 7.77933L20.1026 7.27041V7.05811L16.2309 7.55487Z" fill="#EF4B24"/>
<path d="M13.5376 5.87393L20.1028 6.74552V6.55559L13.6265 5.66162L13.5376 5.87393Z" fill="#EF4B24"/>
<path d="M15.1926 4.17501L20.2471 6.26459H20.6025L15.4149 4.01855L15.1926 4.17501Z" fill="#EF4B24"/>
<path d="M16.97 3.15837L21.0247 6.26489H21.269L17.1922 3.0354L16.97 3.15837Z" fill="#EF4B24"/>
<path d="M18.5532 2.57816L21.347 6.153V5.92943L18.7809 2.51001L18.5532 2.57816Z" fill="#EF4B24"/>
<path d="M19.9583 2.27546L21.3468 5.51606V5.14182L20.1581 2.2085L19.9583 2.27546Z" fill="#EF4B24"/>
<path d="M21.269 2.13013L21.658 5.03545H21.8245L21.4691 2.13013H21.269Z" fill="#EF4B24"/>
<path d="M21.3468 8.62272V8.2876L19.1196 13.4948L19.1621 13.9662L21.3468 8.62272Z" fill="#EF4B24"/>
<path d="M18.0031 12.2766V11.9302L16.8589 13.2822L16.97 13.6063L18.0031 12.2766Z" fill="#EF4B24"/>
<path d="M21.347 7.86276V7.68408L18.5859 11.1202L18.7304 11.338L21.347 7.86276Z" fill="#EF4B24"/>
<path d="M21.0025 7.57202L16.259 11.12L16.3701 11.3378L21.2691 7.57202H21.0025Z" fill="#EF4B24"/>
<path d="M20.2332 7.57202L15.0371 9.65049L15.2816 9.8182L20.6026 7.57202H20.2332Z" fill="#EF4B24"/>
</svg>
